<svg version="1.1" id="Layer_1" xmlns="http://www.w3.org/2000/svg" xmlns:xlink="http://www.w3.org/1999/xlink" x="0px" y="0px"
	 width="100%" viewBox="0 0 512 512" enable-background="new 0 0 512 512" xml:space="preserve">
<path fill="#45CA6B" opacity="1.000000" stroke="none" 
	d="
M397.000000,513.000000 
	C382.312439,513.000000 367.624878,513.000000 352.667908,512.619263 
	C347.884338,511.131531 343.308624,510.227783 338.865936,508.884247 
	C310.397980,500.274902 286.013550,485.249603 267.467194,461.768768 
	C252.887161,443.309540 243.775879,422.221008 239.896255,398.546631 
	C239.611877,387.077454 239.254562,376.033661 238.948944,364.568604 
	C239.383698,360.702087 239.530563,357.211121 240.188126,353.819122 
	C244.430420,331.935211 252.890015,311.866272 266.661987,294.239197 
	C287.479523,267.594360 314.330750,250.450928 347.581360,243.702896 
	C353.333313,242.535568 359.215454,242.009964 365.501251,241.139755 
	C377.314972,241.680725 388.664917,242.269867 400.425629,242.916687 
	C402.594818,243.317657 404.373627,243.579758 406.108643,244.016144 
	C446.773407,254.244522 477.070007,277.978302 496.343323,315.056000 
	C508.876221,339.166504 513.223511,365.068329 510.140778,392.302551 
	C508.332489,408.277588 503.999512,423.391754 496.955872,437.642670 
	C488.414001,454.924805 476.595032,469.719940 461.578857,482.063995 
	C443.103271,497.251801 422.289673,506.962860 398.780975,511.085541 
	C398.096466,511.205566 397.589691,512.339050 397.000000,513.000000 
M361.000000,399.500000 
	C361.000000,421.233704 361.000000,442.967377 361.000000,464.540527 
	C372.201050,464.540527 382.432526,464.540527 393.189484,464.540527 
	C393.189484,427.053497 393.189484,390.022491 393.189484,351.417114 
	C404.399170,362.686340 414.557739,372.898865 424.025940,382.417389 
	C431.772888,374.879517 439.197601,367.655182 445.575867,361.449066 
	C422.496338,338.362732 399.243103,315.102600 377.015961,292.868927 
	C354.361237,315.507141 331.096893,338.754486 308.707947,361.127106 
	C315.361481,367.783508 322.604004,375.029175 330.900635,383.329346 
	C340.367859,373.528412 350.350891,363.193451 361.000000,352.168945 
	C361.000000,368.258026 361.000000,383.378998 361.000000,399.500000 
z"/>
<path fill="#000000" opacity="1.000000" stroke="none" 
	d="
M239.823334,398.972046 
	C243.775879,422.221008 252.887161,443.309540 267.467194,461.768768 
	C286.013550,485.249603 310.397980,500.274902 338.865936,508.884247 
	C343.308624,510.227783 347.884338,511.131531 352.199280,512.619263 
	C235.049255,513.000000 118.098526,513.000000 1.073894,513.000000 
	C1.073894,342.454468 1.073894,171.908920 1.073894,1.000000 
	C59.353725,1.000000 117.708206,1.000000 176.870789,1.331509 
	C177.011765,2.097530 176.392517,2.792672 175.669952,2.925416 
	C169.766815,4.009877 163.786652,4.732440 157.938187,6.046800 
	C136.468704,10.871748 116.341339,19.212587 97.749191,30.868887 
	C78.207008,43.120804 61.187008,58.294838 46.825314,76.525223 
	C33.076515,93.977615 22.406239,113.012680 14.998053,133.891006 
	C6.544543,157.715363 2.336632,182.216858 4.020226,207.560287 
	C4.552639,215.574783 5.151929,223.592285 6.023815,231.575287 
	C8.098293,250.569290 14.119997,268.458435 21.997370,285.730103 
	C34.423538,312.975372 52.577705,335.813782 75.470917,355.084351 
	C90.861328,368.039368 107.800484,378.183716 126.258568,386.109467 
	C150.500732,396.518768 175.910446,401.334473 202.054352,401.788116 
	C214.623947,402.006226 227.232452,399.981232 239.823334,398.972046 
z"/>
<path fill="#000000" opacity="1.000000" stroke="none" 
	d="
M397.468689,513.000000 
	C397.589691,512.339050 398.096466,511.205566 398.780975,511.085541 
	C422.289673,506.962860 443.103271,497.251801 461.578857,482.063995 
	C476.595032,469.719940 488.414001,454.924805 496.955872,437.642670 
	C503.999512,423.391754 508.332489,408.277588 510.140778,392.302551 
	C513.223511,365.068329 508.876221,339.166504 496.343323,315.056000 
	C477.070007,277.978302 446.773407,254.244522 406.108643,244.016144 
	C404.373627,243.579758 402.594818,243.317657 400.596191,242.559021 
	C401.569153,234.799210 403.809052,227.452209 403.791138,220.110733 
	C403.747955,202.432281 404.083710,184.554108 401.628693,167.128128 
	C398.166565,142.553757 388.916107,119.667007 376.118713,98.202522 
	C361.295410,73.340195 342.084442,52.553646 318.409180,36.241806 
	C292.648407,18.493080 264.217804,6.793638 232.882095,2.920244 
	C232.186234,2.834230 231.624374,1.664310 231.000000,1.000001 
	C324.954803,1.000000 418.909576,1.000000 512.932190,1.000000 
	C512.932190,171.666656 512.932190,342.333344 512.932190,513.000000 
	C474.567169,513.000000 436.252228,513.000000 397.468689,513.000000 
z"/>
<path fill="#EBE349" opacity="1.000000" stroke="none" 
	d="
M230.531342,1.000001 
	C231.624374,1.664310 232.186234,2.834230 232.882095,2.920244 
	C264.217804,6.793638 292.648407,18.493080 318.409180,36.241806 
	C342.084442,52.553646 361.295410,73.340195 376.118713,98.202522 
	C388.916107,119.667007 398.166565,142.553757 401.628693,167.128128 
	C404.083710,184.554108 403.747955,202.432281 403.791138,220.110733 
	C403.809052,227.452209 401.569153,234.799210 400.185425,242.501358 
	C388.664917,242.269867 377.314972,241.680725 365.494659,240.707245 
	C366.062805,233.093430 367.257812,225.882370 368.111115,218.631104 
	C370.935028,194.634537 368.445374,171.079178 360.812775,148.238815 
	C350.432129,117.174820 332.399078,91.184944 306.964661,70.471542 
	C278.253113,47.089275 245.143478,34.934395 208.339081,33.105125 
	C186.708725,32.030045 165.564316,35.343346 145.132309,42.785324 
	C104.297485,57.658665 73.282959,84.040527 52.892685,122.421616 
	C37.979034,150.493927 31.534151,180.458771 33.843784,212.404251 
	C35.427643,234.311188 40.744228,255.025833 50.355183,274.668396 
	C61.563728,297.576050 77.037521,317.031616 97.216309,332.810089 
	C125.946510,355.275208 158.531891,367.583099 194.813950,368.702820 
	C209.456238,369.154694 224.199799,366.325745 238.897247,364.989899 
	C239.254562,376.033661 239.611877,387.077454 239.896255,398.546631 
	C227.232452,399.981232 214.623947,402.006226 202.054352,401.788116 
	C175.910446,401.334473 150.500732,396.518768 126.258568,386.109467 
	C107.800484,378.183716 90.861328,368.039368 75.470917,355.084351 
	C52.577705,335.813782 34.423538,312.975372 21.997370,285.730103 
	C14.119997,268.458435 8.098293,250.569290 6.023815,231.575287 
	C5.151929,223.592285 4.552639,215.574783 4.020226,207.560287 
	C2.336632,182.216858 6.544543,157.715363 14.998053,133.891006 
	C22.406239,113.012680 33.076515,93.977615 46.825314,76.525223 
	C61.187008,58.294838 78.207008,43.120804 97.749191,30.868887 
	C116.341339,19.212587 136.468704,10.871748 157.938187,6.046800 
	C163.786652,4.732440 169.766815,4.009877 175.669952,2.925416 
	C176.392517,2.792672 177.011765,2.097530 177.339447,1.331509 
	C194.687561,1.000000 212.375122,1.000000 230.531342,1.000001 
z"/>
<path fill="#E8C932" opacity="1.000000" stroke="none" 
	d="
M238.948944,364.568604 
	C224.199799,366.325745 209.456238,369.154694 194.813950,368.702820 
	C158.531891,367.583099 125.946510,355.275208 97.216309,332.810089 
	C77.037521,317.031616 61.563728,297.576050 50.355183,274.668396 
	C40.744228,255.025833 35.427643,234.311188 33.843784,212.404251 
	C31.534151,180.458771 37.979034,150.493927 52.892685,122.421616 
	C73.282959,84.040527 104.297485,57.658665 145.132309,42.785324 
	C165.564316,35.343346 186.708725,32.030045 208.339081,33.105125 
	C245.143478,34.934395 278.253113,47.089275 306.964661,70.471542 
	C332.399078,91.184944 350.432129,117.174820 360.812775,148.238815 
	C368.445374,171.079178 370.935028,194.634537 368.111115,218.631104 
	C367.257812,225.882370 366.062805,233.093430 365.030884,240.755432 
	C359.215454,242.009964 353.333313,242.535568 347.581360,243.702896 
	C314.330750,250.450928 287.479523,267.594360 266.661987,294.239197 
	C252.890015,311.866272 244.430420,331.935211 240.188126,353.819122 
	C239.530563,357.211121 239.383698,360.702087 238.948944,364.568604 
M131.531464,152.999527 
	C129.865158,152.999680 128.173019,153.188065 126.537529,152.963669 
	C122.114601,152.356812 120.691132,154.127792 120.908478,158.546173 
	C121.251938,165.528656 121.270981,172.554703 120.903381,179.534714 
	C120.664055,184.079224 122.327324,185.116455 126.614609,185.088699 
	C153.611069,184.914001 180.609238,185.000427 207.606842,185.000565 
	C209.518555,185.000580 211.430267,185.000565 213.272949,185.000565 
	C213.371765,186.093048 213.473526,186.428024 213.413116,186.730652 
	C213.316284,187.215576 213.159470,187.701721 212.946304,188.148361 
	C204.350189,206.160660 190.088058,216.079941 170.160751,216.881027 
	C156.018082,217.449554 141.834366,216.993637 127.668961,217.000870 
	C121.015045,217.004272 121.009087,217.010559 121.001305,223.405090 
	C120.993599,229.737869 121.205322,236.079819 120.923195,242.399994 
	C120.751465,246.246994 122.021545,248.945663 124.839104,251.522232 
	C151.136581,275.570435 177.323151,299.739929 203.573792,323.839478 
	C209.553421,329.329071 215.656540,334.684143 222.218948,340.563538 
	C229.075012,333.179169 235.677902,326.201874 242.027908,319.001617 
	C242.605545,318.346619 242.027985,315.818695 241.181122,314.918915 
	C238.451813,312.019012 235.333817,309.486694 232.386322,306.790070 
	C213.099289,289.144623 193.813293,271.497986 174.543427,253.833786 
	C173.166992,252.572037 171.921448,251.167511 170.953598,250.176178 
	C180.067886,247.982635 189.123062,246.816833 197.395416,243.623306 
	C222.673264,233.864807 238.913528,215.443604 246.265579,189.355392 
	C247.195236,186.056580 248.559860,184.794128 252.077332,184.916367 
	C259.900513,185.188232 267.745422,184.821564 275.569885,185.074554 
	C279.545898,185.203125 281.279938,184.205078 281.087769,179.849518 
	C280.764923,172.531067 280.839447,165.183090 281.066681,157.857452 
	C281.179810,154.211151 280.091858,152.800812 276.278534,152.927567 
	C268.787506,153.176529 261.271149,152.753525 253.787140,153.091980 
	C249.308029,153.294571 247.293457,152.095886 245.753082,147.459671 
	C243.205505,139.792038 239.232452,132.597916 235.857925,125.205238 
	C235.339676,124.069901 234.810059,122.939758 233.912201,121.000526 
	C236.452911,121.000526 238.227798,121.000580 240.002670,121.000526 
	C252.001602,121.000160 264.003418,120.851112 275.997864,121.082870 
	C280.005341,121.160309 281.207886,119.813065 281.072723,115.923630 
	C280.818268,108.599785 280.776459,101.251396 281.085876,93.931793 
	C281.260864,89.793381 279.612335,88.929817 275.853668,88.936974 
	C225.858292,89.032089 175.862610,89.031502 125.867226,88.936577 
	C122.246307,88.929703 120.798805,89.881630 120.927193,93.709740 
	C121.178421,101.200653 121.162926,108.710922 120.932060,116.203148 
	C120.817833,119.910088 122.061668,121.115768 125.780518,121.069916 
	C139.943756,120.895309 154.119614,120.705437 168.271500,121.143402 
	C174.158447,121.325592 180.273315,122.292931 185.802902,124.258331 
	C199.347061,129.072372 208.575180,138.600754 214.177078,152.999527 
	C186.373840,152.999527 159.448746,152.999527 131.531464,152.999527 
z"/>
<path fill="#AEF4C2" opacity="1.000000" stroke="none" 
	d="
M361.000000,399.000000 
	C361.000000,383.378998 361.000000,368.258026 361.000000,352.168945 
	C350.350891,363.193451 340.367859,373.528412 330.900635,383.329346 
	C322.604004,375.029175 315.361481,367.783508 308.707947,361.127106 
	C331.096893,338.754486 354.361237,315.507141 377.015961,292.868927 
	C399.243103,315.102600 422.496338,338.362732 445.575867,361.449066 
	C439.197601,367.655182 431.772888,374.879517 424.025940,382.417389 
	C414.557739,372.898865 404.399170,362.686340 393.189484,351.417114 
	C393.189484,390.022491 393.189484,427.053497 393.189484,464.540527 
	C382.432526,464.540527 372.201050,464.540527 361.000000,464.540527 
	C361.000000,442.967377 361.000000,421.233704 361.000000,399.000000 
z"/>
<path fill="#F9F489" opacity="1.000000" stroke="none" 
	d="
M132.027557,152.999527 
	C159.448746,152.999527 186.373840,152.999527 214.177078,152.999527 
	C208.575180,138.600754 199.347061,129.072372 185.802902,124.258331 
	C180.273315,122.292931 174.158447,121.325592 168.271500,121.143402 
	C154.119614,120.705437 139.943756,120.895309 125.780518,121.069916 
	C122.061668,121.115768 120.817833,119.910088 120.932060,116.203148 
	C121.162926,108.710922 121.178421,101.200653 120.927193,93.709740 
	C120.798805,89.881630 122.246307,88.929703 125.867226,88.936577 
	C175.862610,89.031502 225.858292,89.032089 275.853668,88.936974 
	C279.612335,88.929817 281.260864,89.793381 281.085876,93.931793 
	C280.776459,101.251396 280.818268,108.599785 281.072723,115.923630 
	C281.207886,119.813065 280.005341,121.160309 275.997864,121.082870 
	C264.003418,120.851112 252.001602,121.000160 240.002670,121.000526 
	C238.227798,121.000580 236.452911,121.000526 233.912201,121.000526 
	C234.810059,122.939758 235.339676,124.069901 235.857925,125.205238 
	C239.232452,132.597916 243.205505,139.792038 245.753082,147.459671 
	C247.293457,152.095886 249.308029,153.294571 253.787140,153.091980 
	C261.271149,152.753525 268.787506,153.176529 276.278534,152.927567 
	C280.091858,152.800812 281.179810,154.211151 281.066681,157.857452 
	C280.839447,165.183090 280.764923,172.531067 281.087769,179.849518 
	C281.279938,184.205078 279.545898,185.203125 275.569885,185.074554 
	C267.745422,184.821564 259.900513,185.188232 252.077332,184.916367 
	C248.559860,184.794128 247.195236,186.056580 246.265579,189.355392 
	C238.913528,215.443604 222.673264,233.864807 197.395416,243.623306 
	C189.123062,246.816833 180.067886,247.982635 170.953598,250.176178 
	C171.921448,251.167511 173.166992,252.572037 174.543427,253.833786 
	C193.813293,271.497986 213.099289,289.144623 232.386322,306.790070 
	C235.333817,309.486694 238.451813,312.019012 241.181122,314.918915 
	C242.027985,315.818695 242.605545,318.346619 242.027908,319.001617 
	C235.677902,326.201874 229.075012,333.179169 222.218948,340.563538 
	C215.656540,334.684143 209.553421,329.329071 203.573792,323.839478 
	C177.323151,299.739929 151.136581,275.570435 124.839104,251.522232 
	C122.021545,248.945663 120.751465,246.246994 120.923195,242.399994 
	C121.205322,236.079819 120.993599,229.737869 121.001305,223.405090 
	C121.009087,217.010559 121.015045,217.004272 127.668961,217.000870 
	C141.834366,216.993637 156.018082,217.449554 170.160751,216.881027 
	C190.088058,216.079941 204.350189,206.160660 212.946304,188.148361 
	C213.159470,187.701721 213.316284,187.215576 213.413116,186.730652 
	C213.473526,186.428024 213.371765,186.093048 213.272949,185.000565 
	C211.430267,185.000565 209.518555,185.000580 207.606842,185.000565 
	C180.609238,185.000427 153.611069,184.914001 126.614609,185.088699 
	C122.327324,185.116455 120.664055,184.079224 120.903381,179.534714 
	C121.270981,172.554703 121.251938,165.528656 120.908478,158.546173 
	C120.691132,154.127792 122.114601,152.356812 126.537529,152.963669 
	C128.173019,153.188065 129.865158,152.999680 132.027557,152.999527 
z"/>
</svg>