<svg version="1.1" id="Layer_1" xmlns="http://www.w3.org/2000/svg" xmlns:xlink="http://www.w3.org/1999/xlink" x="0px" y="0px"
	 width="100%" viewBox="0 0 500 500" enable-background="new 0 0 500 500" xml:space="preserve">
<path fill="#BADA49" opacity="1.000000" stroke="none" 
	d="
M219.000000,1.000005 
	C229.354233,1.000000 239.708450,1.000000 250.526733,1.468640 
	C250.981461,24.552530 250.972107,47.167782 250.944305,69.957611 
	C250.925873,70.132179 250.936539,70.483101 250.503571,70.353546 
	C226.176468,70.260635 203.172913,74.757378 181.229538,84.264496 
	C130.851578,106.091080 96.710327,143.051407 79.067024,194.996368 
	C70.203117,221.093262 68.151306,247.961212 71.830299,275.287903 
	C76.670403,311.239014 91.149414,342.832489 115.004112,370.040222 
	C139.698471,398.205688 170.317673,417.003937 206.619232,426.339783 
	C220.838699,429.996704 235.321976,431.972534 250.279297,431.849976 
	C250.664642,432.104767 250.825714,432.195953 250.992020,432.737762 
	C250.998184,455.792267 250.999100,478.396118 251.000000,501.000000 
	C239.312439,501.000000 227.624878,501.000000 215.719238,500.622131 
	C212.571762,499.490540 209.632278,498.773804 206.714661,497.976837 
	C190.534058,493.557190 173.746796,490.598602 158.365479,484.240875 
	C144.821930,478.642761 131.418625,472.096405 119.067863,463.442871 
	C109.214523,456.539154 98.620926,450.725464 89.750816,442.390503 
	C85.124268,438.043121 80.331429,433.839478 75.331306,429.932281 
	C70.293625,425.995728 67.057289,420.480957 62.224075,416.222168 
	C56.295952,410.998627 52.367420,403.515503 47.529091,397.043121 
	C39.687435,386.553162 32.724220,375.528076 27.129869,363.669891 
	C20.367098,349.334991 13.323311,335.046936 9.380579,319.650513 
	C6.571424,308.680756 5.117989,297.363800 3.091424,285.747437 
	C2.415537,282.528748 1.707767,279.764374 0.999998,277.000000 
	C1.000000,256.979095 1.000000,236.958206 1.386199,216.717438 
	C2.174621,215.649490 2.787063,214.838776 2.945487,213.947388 
	C4.110688,207.391083 4.868337,200.746384 6.346436,194.264572 
	C11.153090,173.186203 19.375895,153.318344 29.060251,134.104385 
	C33.300636,125.691376 38.465748,117.619621 44.115562,110.069862 
	C53.579224,97.423759 63.098137,84.692734 73.871269,73.194344 
	C81.921837,64.601814 91.685150,57.487713 101.233932,50.460060 
	C111.139687,43.169689 121.242043,35.886894 132.105331,30.226034 
	C144.339035,23.851044 157.418152,19.033407 170.312973,14.009148 
	C185.119476,8.240038 200.527008,4.685621 216.342987,2.924275 
	C217.288361,2.818993 218.117035,1.665658 219.000000,1.000005 
z"/>
<path fill="#22C87A" opacity="1.000000" stroke="none" 
	d="
M250.962769,69.783035 
	C250.972107,47.167782 250.981461,24.552530 250.995392,1.468640 
	C263.020905,1.000000 275.041779,1.000000 287.317749,1.362677 
	C289.085480,2.488120 290.521667,3.618314 292.123657,3.951589 
	C300.081055,5.607020 308.259125,6.448726 316.022736,8.725426 
	C325.616058,11.538686 335.088440,15.006750 344.231812,19.053326 
	C356.895752,24.658003 369.388336,30.722401 381.591736,37.266071 
	C388.181946,40.799858 394.216187,45.486153 400.143433,50.111080 
	C407.419281,55.788300 414.776093,61.490017 421.280945,67.997726 
	C431.650452,78.371765 441.929993,88.947327 451.137970,100.334923 
	C458.325439,109.223747 464.399536,119.158791 469.952637,129.191162 
	C479.857758,147.086182 488.133453,165.789978 493.217468,185.685791 
	C495.593872,194.985580 497.059143,204.518219 498.924927,214.371643 
	C499.608337,216.865326 500.304169,218.932663 501.000000,221.000000 
	C501.000000,242.687561 501.000000,264.375122 500.598328,286.343994 
	C499.816620,287.128418 499.149628,287.604065 499.098297,288.138733 
	C497.574310,304.020447 493.367889,319.329987 487.711853,334.088959 
	C482.661560,347.267426 476.166656,359.904877 470.031738,372.647491 
	C468.149445,376.557037 465.369110,380.037262 462.969879,383.694275 
	C457.286102,392.357697 451.872864,401.219910 445.772400,409.580048 
	C442.548828,413.997589 438.151367,417.568573 434.221100,421.458282 
	C425.925018,429.668854 418.010315,438.336334 409.131348,445.863434 
	C402.225189,451.718048 393.976379,455.960815 386.538696,461.223022 
	C375.129944,469.294830 363.162384,476.238068 350.178955,481.518768 
	C330.482086,489.529999 310.445923,496.214935 289.270294,499.054199 
	C288.441467,499.165314 287.753571,500.327545 287.000000,501.000000 
	C275.312439,501.000000 263.624878,501.000000 251.468658,501.000000 
	C250.999100,478.396118 250.998184,455.792267 251.442978,432.604218 
	C288.647522,431.470490 322.545227,421.315735 352.826599,400.484467 
	C429.219788,347.931732 453.202026,248.990509 412.110016,169.105774 
	C388.299683,122.817360 350.966217,92.379051 301.185364,77.175484 
	C284.810028,72.174278 267.938568,70.649979 250.962769,69.783035 
z"/>
<path fill="#000000" opacity="1.000000" stroke="none" 
	d="
M498.937347,213.945312 
	C497.059143,204.518219 495.593872,194.985580 493.217468,185.685791 
	C488.133453,165.789978 479.857758,147.086182 469.952637,129.191162 
	C464.399536,119.158791 458.325439,109.223747 451.137970,100.334923 
	C441.929993,88.947327 431.650452,78.371765 421.280945,67.997726 
	C414.776093,61.490017 407.419281,55.788300 400.143433,50.111080 
	C394.216187,45.486153 388.181946,40.799858 381.591736,37.266071 
	C369.388336,30.722401 356.895752,24.658003 344.231812,19.053326 
	C335.088440,15.006750 325.616058,11.538686 316.022736,8.725426 
	C308.259125,6.448726 300.081055,5.607020 292.123657,3.951589 
	C290.521667,3.618314 289.085480,2.488120 287.786438,1.362677 
	C358.927032,1.000000 429.854065,1.000000 501.000000,1.000000 
	C501.000000,71.687408 501.000000,142.375046 500.712769,213.829315 
	C499.929443,214.379059 499.433411,214.162186 498.937347,213.945312 
z"/>
<path fill="#000000" opacity="1.000000" stroke="none" 
	d="
M218.531342,1.000005 
	C218.117035,1.665658 217.288361,2.818993 216.342987,2.924275 
	C200.527008,4.685621 185.119476,8.240038 170.312973,14.009148 
	C157.418152,19.033407 144.339035,23.851044 132.105331,30.226034 
	C121.242043,35.886894 111.139687,43.169689 101.233932,50.460060 
	C91.685150,57.487713 81.921837,64.601814 73.871269,73.194344 
	C63.098137,84.692734 53.579224,97.423759 44.115562,110.069862 
	C38.465748,117.619621 33.300636,125.691376 29.060251,134.104385 
	C19.375895,153.318344 11.153090,173.186203 6.346436,194.264572 
	C4.868337,200.746384 4.110688,207.391083 2.945487,213.947388 
	C2.787063,214.838776 2.174621,215.649490 1.386199,216.248779 
	C1.000000,144.405792 1.000000,72.811577 1.000000,1.000000 
	C73.354080,1.000000 145.708389,1.000000 218.531342,1.000005 
z"/>
<path fill="#000000" opacity="1.000000" stroke="none" 
	d="
M3.059542,286.201782 
	C5.117989,297.363800 6.571424,308.680756 9.380579,319.650513 
	C13.323311,335.046936 20.367098,349.334991 27.129869,363.669891 
	C32.724220,375.528076 39.687435,386.553162 47.529091,397.043121 
	C52.367420,403.515503 56.295952,410.998627 62.224075,416.222168 
	C67.057289,420.480957 70.293625,425.995728 75.331306,429.932281 
	C80.331429,433.839478 85.124268,438.043121 89.750816,442.390503 
	C98.620926,450.725464 109.214523,456.539154 119.067863,463.442871 
	C131.418625,472.096405 144.821930,478.642761 158.365479,484.240875 
	C173.746796,490.598602 190.534058,493.557190 206.714661,497.976837 
	C209.632278,498.773804 212.571762,499.490540 215.250580,500.622131 
	C143.739471,501.000000 72.478935,501.000000 1.000000,501.000000 
	C1.000000,429.645935 1.000000,358.291626 1.298164,286.172241 
	C2.084067,285.672028 2.571804,285.936890 3.059542,286.201782 
z"/>
<path fill="#000000" opacity="1.000000" stroke="none" 
	d="
M287.468689,501.000000 
	C287.753571,500.327545 288.441467,499.165314 289.270294,499.054199 
	C310.445923,496.214935 330.482086,489.529999 350.178955,481.518768 
	C363.162384,476.238068 375.129944,469.294830 386.538696,461.223022 
	C393.976379,455.960815 402.225189,451.718048 409.131348,445.863434 
	C418.010315,438.336334 425.925018,429.668854 434.221100,421.458282 
	C438.151367,417.568573 442.548828,413.997589 445.772400,409.580048 
	C451.872864,401.219910 457.286102,392.357697 462.969879,383.694275 
	C465.369110,380.037262 468.149445,376.557037 470.031738,372.647491 
	C476.166656,359.904877 482.661560,347.267426 487.711853,334.088959 
	C493.367889,319.329987 497.574310,304.020447 499.098297,288.138733 
	C499.149628,287.604065 499.816620,287.128418 500.598328,286.812622 
	C501.000000,358.260376 501.000000,429.520721 501.000000,501.000000 
	C429.979248,501.000000 358.958282,501.000000 287.468689,501.000000 
z"/>
<path fill="#F9FCD2" opacity="1.000000" stroke="none" 
	d="
M3.091425,285.747437 
	C2.571804,285.936890 2.084067,285.672028 1.298164,285.703583 
	C1.000000,283.299988 1.000000,280.599976 0.999998,277.449982 
	C1.707767,279.764374 2.415537,282.528748 3.091425,285.747437 
z"/>
<path fill="#E0FCF5" opacity="1.000000" stroke="none" 
	d="
M498.924927,214.371643 
	C499.433411,214.162186 499.929443,214.379059 500.712769,214.297974 
	C501.000000,216.041672 501.000000,218.083328 501.000000,220.562500 
	C500.304169,218.932663 499.608337,216.865326 498.924927,214.371643 
z"/>
<path fill="#D4E8FD" opacity="1.000000" stroke="none" 
	d="
M250.944321,69.957611 
	C267.938568,70.649979 284.810028,72.174278 301.185364,77.175484 
	C350.966217,92.379051 388.299683,122.817360 412.110016,169.105774 
	C453.202026,248.990509 429.219788,347.931732 352.826599,400.484467 
	C322.545227,421.315735 288.647522,431.470490 251.437729,432.153595 
	C250.825714,432.195953 250.664642,432.104767 250.462494,431.507263 
	C250.615112,430.038177 250.976852,429.075623 250.977982,428.112671 
	C251.007858,402.713715 251.028000,377.314636 250.928726,351.916046 
	C250.922989,350.444397 249.896225,348.976776 249.610352,347.340698 
	C250.261337,347.018097 250.646591,346.862091 251.412628,346.783325 
	C260.507965,345.279633 267.725647,341.203766 273.726959,334.115387 
	C268.080292,329.367249 262.816986,324.941467 257.716095,320.652252 
	C255.209686,322.054199 253.067810,323.252258 250.952408,324.316498 
	C250.978882,324.182709 251.025681,323.914001 251.015106,323.451477 
	C251.091751,309.256287 251.179001,295.523651 251.618134,281.804321 
	C253.632614,282.485687 255.295197,283.153717 257.252899,283.940308 
	C261.201294,278.071686 265.047821,272.354553 269.845337,265.223907 
	C262.899963,263.086792 256.978088,261.264618 250.886322,259.317322 
	C250.427444,259.144043 250.182678,259.013214 250.174164,258.440674 
	C250.594055,251.819077 250.821899,245.556473 251.005142,239.135971 
	C250.960526,238.978058 250.898636,238.655746 251.358337,238.788437 
	C260.478943,238.938248 269.141968,239.087753 277.800323,238.947556 
	C303.295044,238.534760 326.599518,221.358231 332.627411,196.550644 
	C335.364502,185.286301 334.384979,173.133041 335.269440,161.396439 
	C335.565826,157.463409 333.905029,156.688904 330.328156,156.762192 
	C320.004883,156.973709 309.659790,157.166763 299.349426,156.738342 
	C280.151306,155.940598 264.190277,162.633423 250.750488,176.238037 
	C249.971161,175.387589 249.462479,174.712708 249.346497,173.927399 
	C250.159271,172.321747 250.943665,170.827087 250.945892,169.331238 
	C250.995026,136.381943 250.957504,103.432503 250.936539,70.483101 
	C250.936539,70.483101 250.925873,70.132179 250.944321,69.957611 
M325.986115,259.136871 
	C323.492249,259.032318 320.990051,258.742065 318.505798,258.852936 
	C300.187988,259.670349 286.691406,268.309937 279.150513,284.934052 
	C271.588867,301.603882 273.897705,317.742096 285.700897,331.658356 
	C297.469513,345.533844 312.897675,350.528534 330.675323,346.019043 
	C350.859314,340.899078 364.390228,322.660828 363.934113,302.141144 
	C363.459808,280.802460 349.073212,264.179840 325.986115,259.136871 
z"/>
<path fill="#ECF5FD" opacity="1.000000" stroke="none" 
	d="
M250.503571,70.353546 
	C250.957504,103.432503 250.995026,136.381943 250.945892,169.331238 
	C250.943665,170.827087 250.159271,172.321747 249.042419,173.787781 
	C239.592621,165.403412 229.486343,158.838089 217.401062,157.892883 
	C201.515198,156.650436 185.497772,157.030670 169.535950,156.972198 
	C168.619736,156.968842 166.981705,159.252151 166.900650,160.547623 
	C166.589478,165.522018 166.921997,170.532700 166.746674,175.520432 
	C166.390808,185.644089 167.684692,195.419449 171.992081,204.704697 
	C179.016876,219.847778 190.846436,229.717712 206.211182,236.246033 
	C207.045029,236.621231 207.681671,236.729431 208.516296,236.821716 
	C208.714249,236.805801 209.029266,237.047714 209.205444,237.299561 
	C210.588394,237.685867 211.795151,237.820312 213.394012,237.926773 
	C214.547104,238.077316 215.308121,238.255814 216.229034,238.656754 
	C217.259796,238.903870 218.130630,238.928543 219.467865,238.900421 
	C230.306107,238.996399 240.677917,239.145142 251.049744,239.293884 
	C250.821899,245.556473 250.594055,251.819077 249.725739,258.484650 
	C246.381195,258.819489 243.677124,258.751343 240.874298,258.562378 
	C240.446823,258.298401 240.195175,258.392883 239.640808,258.822937 
	C237.708084,259.044189 236.155167,259.167511 234.231079,259.223083 
	C233.236191,259.476654 232.612473,259.797943 231.868759,260.209564 
	C231.748779,260.299896 231.463409,260.206146 231.107452,260.159546 
	C230.183350,260.455597 229.615189,260.798279 228.812561,261.362061 
	C227.753616,261.818756 226.929169,262.054321 226.001083,262.090393 
	C225.591751,262.214813 225.286026,262.538727 224.790283,263.033386 
	C224.272232,263.211884 223.944199,263.219666 223.277344,263.266235 
	C222.663620,263.643066 222.388718,263.981171 221.973114,264.514191 
	C221.389160,264.867584 220.945877,265.026001 220.189087,265.224915 
	C219.607941,265.571075 219.340302,265.876770 218.894806,266.459778 
	C201.327866,280.079010 195.275864,300.194519 203.158417,319.801483 
	C208.499313,333.086334 218.670105,341.408844 232.212494,346.303650 
	C232.797592,346.605347 233.185120,346.680206 233.813019,346.674561 
	C234.368942,346.699890 234.684494,346.805786 235.161972,347.162262 
	C236.200684,347.359497 237.077454,347.306152 238.363586,347.214600 
	C242.296844,347.286713 245.820724,347.397003 249.344620,347.507263 
	C249.896225,348.976776 250.922989,350.444397 250.928726,351.916046 
	C251.028000,377.314636 251.007858,402.713715 250.977982,428.112671 
	C250.976852,429.075623 250.615112,430.038177 250.238190,431.343658 
	C235.321976,431.972534 220.838699,429.996704 206.619232,426.339783 
	C170.317673,417.003937 139.698471,398.205688 115.004112,370.040222 
	C91.149414,342.832489 76.670403,311.239014 71.830299,275.287903 
	C68.151306,247.961212 70.203117,221.093262 79.067024,194.996368 
	C96.710327,143.051407 130.851578,106.091080 181.229538,84.264496 
	C203.172913,74.757378 226.176468,70.260635 250.503571,70.353546 
M186.209106,291.440643 
	C180.152618,291.120697 174.091721,290.492554 168.041077,290.579590 
	C163.314453,290.647552 163.560303,287.855408 163.667419,284.729858 
	C163.767410,281.811798 162.941833,278.568420 167.935211,278.874115 
	C173.572189,279.219147 179.250885,279.046539 184.902878,278.851288 
	C186.102005,278.809845 188.262711,277.737000 188.288681,277.073181 
	C188.544647,270.529419 188.443344,263.971680 188.443344,257.534546 
	C172.481781,257.534546 157.422470,257.534546 142.518494,257.534546 
	C142.251083,258.239136 142.032791,258.546265 142.032318,258.853699 
	C141.989746,286.646332 141.920380,314.439240 142.090118,342.230682 
	C142.097168,343.386261 144.331573,345.503601 145.558838,345.526367 
	C158.702454,345.770203 171.853043,345.744324 184.999008,345.578094 
	C186.178528,345.563171 188.312241,344.095764 188.352676,343.226227 
	C188.643692,336.966125 188.508530,330.686188 188.508530,323.850769 
	C180.977982,323.850769 174.181290,323.696838 167.396118,323.910187 
	C163.511383,324.032349 163.369751,321.678375 163.725662,319.068573 
	C164.088989,316.404205 161.815414,312.153503 167.414200,312.205719 
	C172.240219,312.250732 177.074554,312.039093 181.891083,312.255280 
	C185.308945,312.408691 186.729172,311.257416 186.585800,307.732391 
	C186.376312,302.582153 186.501144,297.418304 186.209106,291.440643 
z"/>
<path fill="#22C87A" opacity="1.000000" stroke="none" 
	d="
M251.005127,239.135971 
	C240.677917,239.145142 230.306107,238.996399 219.241547,238.679382 
	C217.722244,238.485535 216.895676,238.459915 216.069122,238.434296 
	C215.308121,238.255814 214.547104,238.077316 213.140182,237.685242 
	C211.339264,237.330353 210.184265,237.189041 209.029266,237.047714 
	C209.029266,237.047714 208.714249,236.805801 208.284409,236.596619 
	C207.241043,236.251312 206.627533,236.115173 206.014008,235.979050 
	C190.846436,229.717712 179.016876,219.847778 171.992081,204.704697 
	C167.684692,195.419449 166.390808,185.644089 166.746674,175.520432 
	C166.921997,170.532700 166.589478,165.522018 166.900650,160.547623 
	C166.981705,159.252151 168.619736,156.968842 169.535950,156.972198 
	C185.497772,157.030670 201.515198,156.650436 217.401062,157.892883 
	C229.486343,158.838089 239.592621,165.403412 248.649719,173.898209 
	C249.462479,174.712708 249.971161,175.387589 250.742279,176.674652 
	C250.969345,197.743149 250.933990,218.199448 250.898636,238.655746 
	C250.898636,238.655746 250.960526,238.978058 251.005127,239.135971 
z"/>
<path fill="#1CA995" opacity="1.000000" stroke="none" 
	d="
M251.358337,238.788437 
	C250.933990,218.199448 250.969345,197.743149 251.012909,176.850250 
	C264.190277,162.633423 280.151306,155.940598 299.349426,156.738342 
	C309.659790,157.166763 320.004883,156.973709 330.328156,156.762192 
	C333.905029,156.688904 335.565826,157.463409 335.269440,161.396439 
	C334.384979,173.133041 335.364502,185.286301 332.627411,196.550644 
	C326.599518,221.358231 303.295044,238.534760 277.800323,238.947556 
	C269.141968,239.087753 260.478943,238.938248 251.358337,238.788437 
z"/>
<path fill="#12767B" opacity="1.000000" stroke="none" 
	d="
M326.422302,259.219940 
	C349.073212,264.179840 363.459808,280.802460 363.934113,302.141144 
	C364.390228,322.660828 350.859314,340.899078 330.675323,346.019043 
	C312.897675,350.528534 297.469513,345.533844 285.700897,331.658356 
	C273.897705,317.742096 271.588867,301.603882 279.150513,284.934052 
	C286.691406,268.309937 300.187988,259.670349 318.505798,258.852936 
	C320.990051,258.742065 323.492249,259.032318 326.422302,259.219940 
M331.616882,322.321686 
	C340.105591,316.626038 343.672729,308.592255 341.788025,298.662323 
	C340.063202,289.574646 334.317871,283.542786 325.320984,281.119293 
	C316.268860,278.680969 308.498810,281.339813 302.358429,288.268005 
	C295.240356,296.299377 294.985168,308.307495 301.452393,316.817993 
	C308.359772,325.907715 319.622528,328.156494 331.616882,322.321686 
z"/>
<path fill="#20A997" opacity="1.000000" stroke="none" 
	d="
M223.616165,263.227448 
	C223.944199,263.219666 224.272232,263.211884 225.021149,263.040405 
	C225.778763,262.811890 225.999649,262.616272 226.104706,262.289886 
	C226.929169,262.054321 227.753616,261.818756 229.149200,261.364929 
	C230.301361,260.833191 230.882385,260.519653 231.463409,260.206146 
	C231.463409,260.206146 231.748779,260.299896 232.225327,260.233521 
	C233.335327,259.875000 233.968781,259.582886 234.602249,259.290833 
	C236.155167,259.167511 237.708084,259.044189 239.882111,258.885956 
	C240.503204,258.851044 240.973053,258.683197 240.973053,258.683197 
	C243.677124,258.751343 246.381195,258.819489 249.533691,258.843658 
	C250.182678,259.013214 250.427444,259.144043 250.868500,259.827545 
	C251.010574,267.295563 251.000534,274.128235 250.741028,281.016235 
	C250.336594,281.142181 250.181595,281.212860 249.676270,281.150818 
	C248.338623,280.956177 247.351273,280.894226 246.062469,280.622681 
	C244.165466,280.580109 242.569901,280.747162 240.627319,280.885529 
	C239.192001,281.189453 238.103729,281.522064 236.683151,281.851379 
	C235.796600,282.181580 235.242325,282.515076 234.350189,282.894348 
	C232.617645,283.823578 231.118637,284.578430 229.845139,285.611298 
	C221.140381,292.671387 219.092804,305.643433 225.098312,315.291748 
	C230.555054,324.058411 241.839188,327.811005 251.025681,323.914001 
	C251.025681,323.914001 250.978882,324.182709 250.992676,324.753235 
	C251.014923,332.451202 251.023376,339.578644 251.031845,346.706055 
	C250.646591,346.862091 250.261337,347.018097 249.610352,347.340698 
	C245.820724,347.397003 242.296844,347.286713 238.011963,347.077209 
	C236.500656,346.955872 235.750351,346.933746 235.000031,346.911652 
	C234.684494,346.805786 234.368942,346.699890 233.621399,346.433594 
	C232.797897,346.207733 232.406403,346.142273 232.014923,346.076813 
	C218.670105,341.408844 208.499313,333.086334 203.158417,319.801483 
	C195.275864,300.194519 201.327866,280.079010 219.191956,266.391052 
	C219.945496,265.758148 220.224045,265.471283 220.502594,265.184418 
	C220.945877,265.026001 221.389160,264.867584 222.285889,264.429749 
	C223.031616,263.842712 223.323883,263.535065 223.616165,263.227448 
z"/>
<path fill="#EAF5FE" opacity="1.000000" stroke="none" 
	d="
M237.015442,281.854675 
	C238.103729,281.522064 239.192001,281.189453 240.847015,281.147888 
	C243.063812,281.236725 244.713867,281.034515 246.363937,280.832306 
	C247.351273,280.894226 248.338623,280.956177 249.834412,281.327942 
	C250.342865,281.637726 250.776993,281.833954 250.776993,281.833954 
	C250.776993,281.833954 251.253296,281.820984 251.247284,281.822998 
	C251.241287,281.824982 251.266251,281.791016 251.266251,281.791016 
	C251.179001,295.523651 251.091751,309.256287 251.015106,323.451477 
	C241.839188,327.811005 230.555054,324.058411 225.098312,315.291748 
	C219.092804,305.643433 221.140381,292.671387 229.845139,285.611298 
	C231.118637,284.578430 232.617645,283.823578 234.695755,282.924744 
	C235.924622,282.557800 236.470032,282.206238 237.015442,281.854675 
z"/>
<path fill="#15777C" opacity="1.000000" stroke="none" 
	d="
M251.412628,346.783325 
	C251.023376,339.578644 251.014923,332.451202 250.966202,324.887024 
	C253.067810,323.252258 255.209686,322.054199 257.716095,320.652252 
	C262.816986,324.941467 268.080292,329.367249 273.726959,334.115387 
	C267.725647,341.203766 260.507965,345.279633 251.412628,346.783325 
z"/>
<path fill="#16777D" opacity="1.000000" stroke="none" 
	d="
M250.990509,280.960907 
	C251.000534,274.128235 251.010574,267.295563 251.038422,259.952667 
	C256.978088,261.264618 262.899963,263.086792 269.845337,265.223907 
	C265.047821,272.354553 261.201294,278.071686 257.252899,283.940308 
	C255.295197,283.153717 253.632614,282.485687 251.618134,281.804321 
	C251.266251,281.791016 251.241287,281.824982 251.223694,281.595337 
	C251.206085,281.365723 250.990509,280.960907 250.990509,280.960907 
z"/>
<path fill="#21AA97" opacity="1.000000" stroke="none" 
	d="
M186.346283,291.850464 
	C186.501144,297.418304 186.376312,302.582153 186.585800,307.732391 
	C186.729172,311.257416 185.308945,312.408691 181.891083,312.255280 
	C177.074554,312.039093 172.240219,312.250732 167.414200,312.205719 
	C161.815414,312.153503 164.088989,316.404205 163.725662,319.068573 
	C163.369751,321.678375 163.511383,324.032349 167.396118,323.910187 
	C174.181290,323.696838 180.977982,323.850769 188.508530,323.850769 
	C188.508530,330.686188 188.643692,336.966125 188.352676,343.226227 
	C188.312241,344.095764 186.178528,345.563171 184.999008,345.578094 
	C171.853043,345.744324 158.702454,345.770203 145.558838,345.526367 
	C144.331573,345.503601 142.097168,343.386261 142.090118,342.230682 
	C141.920380,314.439240 141.989746,286.646332 142.032318,258.853699 
	C142.032791,258.546265 142.251083,258.239136 142.518494,257.534546 
	C157.422470,257.534546 172.481781,257.534546 188.443344,257.534546 
	C188.443344,263.971680 188.544647,270.529419 188.288681,277.073181 
	C188.262711,277.737000 186.102005,278.809845 184.902878,278.851288 
	C179.250885,279.046539 173.572189,279.219147 167.935211,278.874115 
	C162.941833,278.568420 163.767410,281.811798 163.667419,284.729858 
	C163.560303,287.855408 163.314453,290.647552 168.041077,290.579590 
	C174.091721,290.492554 180.152618,291.120697 186.346283,291.850464 
z"/>
<path fill="#D4E8FD" opacity="1.000000" stroke="none" 
	d="
M209.205444,237.299561 
	C210.184265,237.189041 211.339264,237.330353 212.748093,237.713196 
	C211.795151,237.820312 210.588394,237.685867 209.205444,237.299561 
z"/>
<path fill="#D4E8FD" opacity="1.000000" stroke="none" 
	d="
M216.229034,238.656738 
	C216.895676,238.459915 217.722244,238.485535 218.775131,238.732178 
	C218.130630,238.928543 217.259796,238.903870 216.229034,238.656738 
z"/>
<path fill="#D4E8FD" opacity="1.000000" stroke="none" 
	d="
M235.161972,347.162262 
	C235.750351,346.933746 236.500656,346.955872 237.602600,347.115387 
	C237.077454,347.306152 236.200684,347.359497 235.161972,347.162262 
z"/>
<path fill="#D4E8FD" opacity="1.000000" stroke="none" 
	d="
M226.001083,262.090393 
	C225.999649,262.616272 225.778763,262.811890 225.211182,262.869690 
	C225.286026,262.538727 225.591751,262.214813 226.001083,262.090393 
z"/>
<path fill="#D4E8FD" opacity="1.000000" stroke="none" 
	d="
M231.107452,260.159546 
	C230.882385,260.519653 230.301361,260.833191 229.383698,261.143829 
	C229.615189,260.798279 230.183350,260.455597 231.107452,260.159546 
z"/>
<path fill="#D4E8FD" opacity="1.000000" stroke="none" 
	d="
M234.231079,259.223083 
	C233.968781,259.582886 233.335327,259.875000 232.345306,260.143188 
	C232.612473,259.797943 233.236191,259.476654 234.231079,259.223083 
z"/>
<path fill="#D4E8FD" opacity="1.000000" stroke="none" 
	d="
M206.211182,236.246033 
	C206.627533,236.115173 207.241043,236.251312 208.086456,236.612518 
	C207.681671,236.729431 207.045029,236.621231 206.211182,236.246033 
z"/>
<path fill="#D4E8FD" opacity="1.000000" stroke="none" 
	d="
M223.277344,263.266235 
	C223.323883,263.535065 223.031616,263.842712 222.426575,264.234802 
	C222.388718,263.981171 222.663620,263.643066 223.277344,263.266235 
z"/>
<path fill="#D4E8FD" opacity="1.000000" stroke="none" 
	d="
M220.189087,265.224915 
	C220.224045,265.471283 219.945496,265.758148 219.369812,266.113739 
	C219.340302,265.876770 219.607941,265.571075 220.189087,265.224915 
z"/>
<path fill="#D4E8FD" opacity="1.000000" stroke="none" 
	d="
M240.874298,258.562378 
	C240.973053,258.683197 240.503204,258.851044 240.261902,258.788025 
	C240.195175,258.392883 240.446823,258.298401 240.874298,258.562378 
z"/>
<path fill="#D4E8FD" opacity="1.000000" stroke="none" 
	d="
M232.212494,346.303650 
	C232.406403,346.142273 232.797897,346.207733 233.381012,346.514130 
	C233.185120,346.680206 232.797592,346.605347 232.212494,346.303650 
z"/>
<path fill="#D1E7FC" opacity="1.000000" stroke="none" 
	d="
M331.299408,322.517883 
	C319.622528,328.156494 308.359772,325.907715 301.452393,316.817993 
	C294.985168,308.307495 295.240356,296.299377 302.358429,288.268005 
	C308.498810,281.339813 316.268860,278.680969 325.320984,281.119293 
	C334.317871,283.542786 340.063202,289.574646 341.788025,298.662323 
	C343.672729,308.592255 340.105591,316.626038 331.299408,322.517883 
z"/>
<path fill="#D4E8FD" opacity="1.000000" stroke="none" 
	d="
M246.062469,280.622681 
	C244.713867,281.034515 243.063812,281.236725 241.194046,281.176575 
	C242.569901,280.747162 244.165466,280.580109 246.062469,280.622681 
z"/>
<path fill="#D4E8FD" opacity="1.000000" stroke="none" 
	d="
M236.683151,281.851379 
	C236.470032,282.206238 235.924622,282.557800 235.033630,282.878967 
	C235.242325,282.515076 235.796600,282.181580 236.683151,281.851379 
z"/>
<path fill="#D4E8FD" opacity="1.000000" stroke="none" 
	d="
M250.741043,281.016235 
	C250.990509,280.960907 251.206085,281.365723 251.229691,281.593353 
	C251.253296,281.820984 250.776993,281.833954 250.776993,281.833954 
	C250.776993,281.833954 250.342865,281.637726 250.184723,281.460632 
	C250.181595,281.212860 250.336594,281.142181 250.741043,281.016235 
z"/>
</svg>