<svg version="1.1" id="Layer_1" xmlns="http://www.w3.org/2000/svg" xmlns:xlink="http://www.w3.org/1999/xlink" x="0px" y="0px"
	 width="100%" viewBox="0 0 512 512" enable-background="new 0 0 512 512" xml:space="preserve">
<path fill="#000000" opacity="1.000000" stroke="none" 
	d="
M292.000000,513.000000 
	C194.690292,513.000000 97.880577,513.000000 1.035435,513.000000 
	C1.035435,342.398590 1.035435,171.797195 1.035435,1.097890 
	C171.559723,1.097890 342.119537,1.097890 512.839661,1.097890 
	C512.839661,171.666550 512.839661,342.333252 512.839661,513.000000 
	C439.463837,513.000000 365.981903,513.000000 292.000000,513.000000 
M406.665588,384.988098 
	C411.376862,384.460083 413.054169,381.538208 412.998749,377.124176 
	C412.936493,372.170227 412.906738,367.213257 413.006897,362.260559 
	C413.107727,357.272522 411.060547,354.037079 406.010895,352.097351 
	C406.004883,349.400482 405.998871,346.703644 406.708435,343.905579 
	C411.480560,342.530487 413.207214,339.179230 413.019989,334.443604 
	C412.895081,331.283997 412.769012,328.091736 413.093048,324.960632 
	C413.260223,323.345306 414.434174,321.842529 415.108276,320.269623 
	C416.421021,317.206543 418.791443,314.141937 418.825531,311.057007 
	C419.121796,284.244629 418.963531,257.427490 419.057465,230.612167 
	C419.065216,228.394226 419.406281,225.874649 420.484589,224.011566 
	C428.556091,210.065323 436.813080,196.225693 445.086273,182.397095 
	C460.525269,156.590805 476.072723,130.849243 491.452423,105.007751 
	C497.120331,95.484276 493.735260,90.004517 482.471313,90.004074 
	C426.175110,90.001869 369.878937,90.002892 313.582733,90.003372 
	C309.085693,90.003410 304.579376,89.828484 300.094299,90.061249 
	C295.716736,90.288437 292.412262,92.138443 291.044739,97.009224 
	C285.361542,96.995300 279.678345,96.981377 273.697693,96.319672 
	C272.657715,91.489754 269.098907,90.114441 264.785675,90.036736 
	C258.955566,89.931709 253.056000,89.491943 247.318085,90.226196 
	C244.429230,90.595871 240.720810,92.564537 239.268921,94.955399 
	C218.566711,129.046539 198.195557,163.338669 177.727982,197.572388 
	C152.824692,239.225220 127.861069,280.842194 103.118561,322.590271 
	C101.809059,324.799835 101.524811,328.283447 102.166489,330.818787 
	C103.020111,334.191589 106.190331,335.057922 109.753899,335.054565 
	C189.235275,334.979889 268.716766,334.975464 348.198120,335.064362 
	C352.020325,335.068665 354.483978,333.738068 356.319489,330.520142 
	C357.812317,327.903046 359.599548,325.453918 362.002441,321.793640 
	C362.002441,349.315582 361.883850,375.303619 362.110229,401.288605 
	C362.151672,406.044220 360.571045,407.113281 356.113739,407.090790 
	C323.622192,406.926819 291.129364,406.989563 258.636963,407.014130 
	C252.026688,407.019104 250.033752,409.040894 250.013397,415.680634 
	C249.976624,427.677704 249.923935,439.675812 250.051376,451.671631 
	C250.085556,454.889740 249.012421,456.129364 245.729767,456.051849 
	C238.568771,455.882690 231.399612,455.917969 224.236710,456.040497 
	C221.398819,456.089020 220.227829,455.279633 219.848297,452.183624 
	C219.039429,445.585724 216.912582,444.021088 210.367981,444.003662 
	C207.701950,443.996582 205.002350,443.733246 202.377045,444.060272 
	C197.396667,444.680634 195.738464,442.972809 195.872818,437.770172 
	C196.238327,423.616241 196.015228,409.446686 195.991928,395.283356 
	C195.977112,386.279266 193.729218,384.005066 184.980469,384.002441 
	C182.147797,384.001617 179.301025,383.822876 176.485992,384.045441 
	C172.912399,384.328003 171.763321,382.793457 171.949097,379.383575 
	C172.157257,375.562714 172.126450,371.715088 171.950851,367.890533 
	C171.718109,362.821869 168.742950,360.047394 163.671722,360.016144 
	C155.840515,359.967896 148.008530,359.965057 140.177383,360.017792 
	C135.339783,360.050354 133.241074,362.032898 133.046799,366.957123 
	C132.876144,371.282867 132.884399,375.624603 133.038788,379.951233 
	C133.146698,382.975433 131.966644,384.063660 128.950058,384.041748 
	C115.287308,383.942627 101.622971,383.937775 87.960320,384.043793 
	C84.848564,384.067932 83.869118,382.788879 83.963676,379.861694 
	C84.103477,375.534119 84.129951,371.192444 83.947197,366.867645 
	C83.740738,361.981995 81.628807,360.054382 76.721207,360.016754 
	C69.889870,359.964355 63.057831,360.001892 56.226093,360.002655 
	C46.898415,360.003723 45.009712,361.937561 45.003044,371.489502 
	C44.994308,384.000610 44.994312,384.000641 32.417858,384.002472 
	C23.214302,384.003815 21.009222,386.170441 21.003141,395.382721 
	C20.986204,421.043396 20.996172,446.704071 20.998112,472.364746 
	C20.998438,476.696991 20.832180,481.038757 21.062372,485.359131 
	C21.381340,491.345825 24.099669,493.985901 29.663046,493.987579 
	C82.317413,494.003326 134.971817,493.974487 187.626099,494.042236 
	C191.498978,494.047211 194.748550,492.720520 194.994858,488.941071 
	C195.481964,481.466919 200.054276,481.403778 205.496277,481.970917 
	C207.144638,482.142700 208.826080,482.002502 210.492340,481.996521 
	C216.769791,481.974060 218.577850,480.836670 219.743988,474.678040 
	C220.319992,471.636108 221.568756,470.928925 224.338409,470.957092 
	C234.668259,471.062286 244.999939,471.025818 255.330719,470.986938 
	C261.983337,470.961914 263.964294,468.992523 263.985870,462.357574 
	C264.024902,450.360504 264.037842,438.363007 263.970123,426.366211 
	C263.954834,423.660645 264.412964,421.953979 267.731110,421.961823 
	C297.890564,422.033234 328.050415,422.047485 358.209717,421.952515 
	C362.471405,421.939087 361.929474,424.621429 362.025909,427.301727 
	C362.127533,430.125305 361.782898,432.158691 358.102997,432.051361 
	C351.610107,431.862030 345.107391,431.971924 338.609161,432.012085 
	C332.531128,432.049652 330.221344,434.294342 330.029480,440.465759 
	C329.910400,444.294586 329.878632,448.135071 330.037720,451.960754 
	C330.163940,454.996155 328.949677,456.117645 325.939819,456.040710 
	C320.278198,455.895966 314.610138,455.982910 308.944916,456.007965 
	C303.472412,456.032135 300.569031,458.024048 300.255219,463.372131 
	C299.797546,471.171143 299.798004,479.040710 300.292389,486.836487 
	C300.618744,491.981934 303.514557,493.971497 308.657806,493.988068 
	C318.155487,494.018738 327.653473,493.968323 337.151062,494.007324 
	C341.893280,494.026794 344.803070,492.101288 345.928955,487.004425 
	C352.608704,486.974304 359.288452,486.944183 365.989929,487.704865 
	C366.185303,492.682434 369.189911,494.037201 373.662262,494.028442 
	C404.444061,493.968353 435.226074,494.004333 466.007996,493.990723 
	C471.773163,493.988159 474.640808,491.574768 474.894135,485.707397 
	C475.202454,478.566376 475.209381,471.390930 474.888977,464.250916 
	C474.626007,458.390503 471.757721,456.031433 465.965210,456.007477 
	C460.474457,455.984772 454.976746,455.835114 449.495178,456.060150 
	C445.947113,456.205841 444.751862,454.829041 444.950714,451.404755 
	C445.162537,447.756653 445.090210,444.083344 444.970367,440.426636 
	C444.769714,434.305817 442.431610,432.050385 436.373169,432.011200 
	C430.549805,431.973541 424.712555,431.759918 418.906738,432.081299 
	C414.476929,432.326508 412.569275,431.132080 412.899048,426.314941 
	C413.307159,420.352905 412.913483,414.340118 413.021423,408.352081 
	C413.111755,403.340546 411.133850,400.039154 406.011780,398.064789 
	C405.974091,393.722351 405.936401,389.379883 406.665588,384.988098 
M47.188171,146.942856 
	C51.305824,143.992233 55.423477,141.041611 59.439682,138.163681 
	C64.981003,140.698563 70.686600,143.774094 76.715401,145.956924 
	C85.662338,149.196335 85.759773,148.927216 86.002129,158.851746 
	C86.126579,163.947861 88.033134,165.943161 92.828880,165.996201 
	C97.924377,166.052551 99.903534,164.051498 99.991936,158.694458 
	C100.033150,156.196686 99.710396,153.646271 100.131287,151.220108 
	C100.357857,149.914062 101.561592,148.196609 102.744225,147.731003 
	C110.833298,144.546173 119.033730,141.644196 128.423157,138.202011 
	C128.571106,138.399490 129.502396,139.796570 130.593292,141.055328 
	C131.681366,142.310806 132.903320,143.455185 134.112335,144.599960 
	C137.337402,147.653641 142.644501,147.814880 145.281235,144.967163 
	C147.804611,142.241837 147.632141,137.083984 144.605865,134.186844 
	C142.097244,131.785278 139.252121,129.735199 137.308105,128.144699 
	C140.582047,121.249435 143.293152,115.929794 145.637024,110.452988 
	C146.987488,107.297440 146.786575,102.525391 149.022202,100.954048 
	C151.541138,99.183586 156.014069,100.195435 159.636856,99.992638 
	C164.097382,99.742966 166.031372,97.579445 165.996429,92.885925 
	C165.961731,88.228004 164.033585,86.173187 159.408081,86.019958 
	C156.745911,85.931770 154.018890,86.326889 151.437332,85.860657 
	C150.009628,85.602814 148.151627,84.283661 147.635406,82.986229 
	C144.478424,75.051788 141.650238,66.986534 138.712479,58.964870 
	C137.746216,59.166130 137.752594,58.965710 137.855804,58.858505 
	C140.048416,56.580875 142.263977,54.325256 144.450439,52.041786 
	C147.556091,48.798378 147.856644,43.601181 145.118774,40.870735 
	C142.381348,38.140736 137.105545,38.369549 133.978745,41.582527 
	C131.668304,43.956657 129.632782,46.598335 128.020157,48.483330 
	C120.969467,45.270016 115.255768,42.200451 109.219887,40.024635 
	C100.231827,36.784615 100.135017,37.053150 99.998543,27.580345 
	C99.918823,22.046644 98.090439,20.037443 93.103676,20.003605 
	C88.028030,19.969168 86.091202,21.966208 86.007500,27.373058 
	C85.971405,29.704380 86.329010,32.103607 85.876884,34.344715 
	C85.580727,35.812721 84.442169,37.774899 83.185776,38.277130 
	C75.117790,41.502243 66.912941,44.384975 57.649410,47.785309 
	C57.538666,47.637905 56.704407,46.374191 55.713001,45.248920 
	C54.614250,44.001808 53.417259,42.831093 52.183720,41.714760 
	C48.209831,38.118450 44.482021,37.995541 41.213707,41.296204 
	C37.974762,44.567207 38.042503,48.394325 41.833485,52.229683 
	C44.140560,54.563766 46.906906,56.443890 48.730743,57.928608 
	C45.582954,64.389412 42.067837,69.082268 41.042446,74.267471 
	C39.260429,83.278740 35.676968,87.911903 25.726868,86.194397 
	C21.876669,85.529808 20.039419,88.779793 19.973656,92.720284 
	C19.905725,96.790634 21.321142,99.606735 25.701744,99.940659 
	C28.517426,100.155273 31.423771,99.646927 34.169182,100.136818 
	C35.741203,100.417320 37.830776,101.741394 38.386856,103.120140 
	C41.578190,111.032730 44.380024,119.102409 47.826004,128.517731 
	C46.491428,129.679001 43.455166,131.498154 41.642403,134.152786 
	C40.130516,136.366821 38.863178,140.003632 39.679165,142.193771 
	C40.474640,144.328842 44.050076,145.428177 47.188171,146.942856 
z"/>
<path fill="#061822" opacity="1.000000" stroke="none" 
	d="
M344.992126,487.048950 
	C344.803070,492.101288 341.893280,494.026794 337.151062,494.007324 
	C327.653473,493.968323 318.155487,494.018738 308.657806,493.988068 
	C303.514557,493.971497 300.618744,491.981934 300.292389,486.836487 
	C299.798004,479.040710 299.797546,471.171143 300.255219,463.372131 
	C300.569031,458.024048 303.472412,456.032135 308.944916,456.007965 
	C314.610138,455.982910 320.278198,455.895966 325.939819,456.040710 
	C328.949677,456.117645 330.163940,454.996155 330.037720,451.960754 
	C329.878632,448.135071 329.910400,444.294586 330.029480,440.465759 
	C330.221344,434.294342 332.531128,432.049652 338.609161,432.012085 
	C345.107391,431.971924 351.610107,431.862030 358.102997,432.051361 
	C361.782898,432.158691 362.127533,430.125305 362.025909,427.301727 
	C361.929474,424.621429 362.471405,421.939087 358.209717,421.952515 
	C328.050415,422.047485 297.890564,422.033234 267.731110,421.961823 
	C264.412964,421.953979 263.954834,423.660645 263.970123,426.366211 
	C264.037842,438.363007 264.024902,450.360504 263.985870,462.357574 
	C263.964294,468.992523 261.983337,470.961914 255.330719,470.986938 
	C244.999939,471.025818 234.668259,471.062286 224.338409,470.957092 
	C221.568756,470.928925 220.319992,471.636108 219.743988,474.678040 
	C218.577850,480.836670 216.769791,481.974060 210.492340,481.996521 
	C208.826080,482.002502 207.144638,482.142700 205.496277,481.970917 
	C200.054276,481.403778 195.481964,481.466919 194.994858,488.941071 
	C194.748550,492.720520 191.498978,494.047211 187.626099,494.042236 
	C134.971817,493.974487 82.317413,494.003326 29.663046,493.987579 
	C24.099669,493.985901 21.381340,491.345825 21.062372,485.359131 
	C20.832180,481.038757 20.998438,476.696991 20.998112,472.364746 
	C20.996172,446.704071 20.986204,421.043396 21.003141,395.382721 
	C21.009222,386.170441 23.214302,384.003815 32.417858,384.002472 
	C44.994312,384.000641 44.994308,384.000610 45.003044,371.489502 
	C45.009712,361.937561 46.898415,360.003723 56.226093,360.002655 
	C63.057831,360.001892 69.889870,359.964355 76.721207,360.016754 
	C81.628807,360.054382 83.740738,361.981995 83.947197,366.867645 
	C84.129951,371.192444 84.103477,375.534119 83.963676,379.861694 
	C83.869118,382.788879 84.848564,384.067932 87.960320,384.043793 
	C101.622971,383.937775 115.287308,383.942627 128.950058,384.041748 
	C131.966644,384.063660 133.146698,382.975433 133.038788,379.951233 
	C132.884399,375.624603 132.876144,371.282867 133.046799,366.957123 
	C133.241074,362.032898 135.339783,360.050354 140.177383,360.017792 
	C148.008530,359.965057 155.840515,359.967896 163.671722,360.016144 
	C168.742950,360.047394 171.718109,362.821869 171.950851,367.890533 
	C172.126450,371.715088 172.157257,375.562714 171.949097,379.383575 
	C171.763321,382.793457 172.912399,384.328003 176.485992,384.045441 
	C179.301025,383.822876 182.147797,384.001617 184.980469,384.002441 
	C193.729218,384.005066 195.977112,386.279266 195.991928,395.283356 
	C196.015228,409.446686 196.238327,423.616241 195.872818,437.770172 
	C195.738464,442.972809 197.396667,444.680634 202.377045,444.060272 
	C205.002350,443.733246 207.701950,443.996582 210.367981,444.003662 
	C216.912582,444.021088 219.039429,445.585724 219.848297,452.183624 
	C220.227829,455.279633 221.398819,456.089020 224.236710,456.040497 
	C231.399612,455.917969 238.568771,455.882690 245.729767,456.051849 
	C249.012421,456.129364 250.085556,454.889740 250.051376,451.671631 
	C249.923935,439.675812 249.976624,427.677704 250.013397,415.680634 
	C250.033752,409.040894 252.026688,407.019104 258.636963,407.014130 
	C291.129364,406.989563 323.622192,406.926819 356.113739,407.090790 
	C360.571045,407.113281 362.151672,406.044220 362.110229,401.288605 
	C361.883850,375.303619 362.002441,349.315582 362.002441,321.793640 
	C359.599548,325.453918 357.812317,327.903046 356.319489,330.520142 
	C354.483978,333.738068 352.020325,335.068665 348.198120,335.064362 
	C268.716766,334.975464 189.235275,334.979889 109.753899,335.054565 
	C106.190331,335.057922 103.020111,334.191589 102.166489,330.818787 
	C101.524811,328.283447 101.809059,324.799835 103.118561,322.590271 
	C127.861069,280.842194 152.824692,239.225220 177.727982,197.572388 
	C198.195557,163.338669 218.566711,129.046539 239.268921,94.955399 
	C240.720810,92.564537 244.429230,90.595871 247.318085,90.226196 
	C253.056000,89.491943 258.955566,89.931709 264.785675,90.036736 
	C269.098907,90.114441 272.657715,91.489754 273.671448,96.957657 
	C272.515137,103.143806 268.945282,105.207573 263.519714,104.904770 
	C260.368042,104.728867 257.184906,105.054680 254.040894,104.820137 
	C251.186905,104.607224 249.534729,105.639137 248.101608,108.132774 
	C243.298645,116.489967 238.231415,124.695007 233.308716,132.984039 
	C232.685242,134.033859 232.319412,135.236694 231.619904,136.868591 
	C252.221558,136.868591 272.161438,136.927917 292.098907,136.736664 
	C293.444733,136.723755 295.185822,135.085587 296.037384,133.752518 
	C299.794128,127.871620 303.306091,121.833748 306.878693,115.836037 
	C308.938782,112.377586 310.945496,108.887337 313.293152,104.868958 
	C308.354462,104.868958 304.363770,104.956947 300.378479,104.847572 
	C294.904938,104.697357 292.927551,102.803291 291.973511,97.097916 
	C292.412262,92.138443 295.716736,90.288437 300.094299,90.061249 
	C304.579376,89.828484 309.085693,90.003410 313.582733,90.003372 
	C369.878937,90.002892 426.175110,90.001869 482.471313,90.004074 
	C493.735260,90.004517 497.120331,95.484276 491.452423,105.007751 
	C476.072723,130.849243 460.525269,156.590805 445.086273,182.397095 
	C436.813080,196.225693 428.556091,210.065323 420.484589,224.011566 
	C419.406281,225.874649 419.065216,228.394226 419.057465,230.612167 
	C418.963531,257.427490 419.121796,284.244629 418.825531,311.057007 
	C418.791443,314.141937 416.421021,317.206543 415.108276,320.269623 
	C414.434174,321.842529 413.260223,323.345306 413.093048,324.960632 
	C412.769012,328.091736 412.895081,331.283997 413.019989,334.443604 
	C413.207214,339.179230 411.480560,342.530487 406.007477,343.839447 
	C400.147369,342.736267 398.281311,339.393982 398.459564,334.377380 
	C398.616638,329.957397 398.492432,325.527405 398.492432,321.001099 
	C390.874817,321.001099 383.925568,321.001099 376.745850,321.001099 
	C376.745850,358.050110 376.745850,394.904999 376.745850,431.662292 
	C384.099701,431.662292 391.152710,431.662292 398.490906,431.662292 
	C398.490906,424.181183 398.477692,417.043182 398.494537,409.905273 
	C398.512207,402.421539 399.188751,401.460114 406.027039,398.992096 
	C411.133850,400.039154 413.111755,403.340546 413.021423,408.352081 
	C412.913483,414.340118 413.307159,420.352905 412.899048,426.314941 
	C412.569275,431.132080 414.476929,432.326508 418.906738,432.081299 
	C424.712555,431.759918 430.549805,431.973541 436.373169,432.011200 
	C442.431610,432.050385 444.769714,434.305817 444.970367,440.426636 
	C445.090210,444.083344 445.162537,447.756653 444.950714,451.404755 
	C444.751862,454.829041 445.947113,456.205841 449.495178,456.060150 
	C454.976746,455.835114 460.474457,455.984772 465.965210,456.007477 
	C471.757721,456.031433 474.626007,458.390503 474.888977,464.250916 
	C475.209381,471.390930 475.202454,478.566376 474.894135,485.707397 
	C474.640808,491.574768 471.773163,493.988159 466.007996,493.990723 
	C435.226074,494.004333 404.444061,493.968353 373.662262,494.028442 
	C369.189911,494.037201 366.185303,492.682434 366.019043,486.946228 
	C367.082886,481.422821 370.279053,479.949829 374.851135,479.962433 
	C401.340576,480.035583 427.830322,479.998169 454.319946,479.998138 
	C456.105988,479.998138 457.892029,479.998108 459.795044,479.998108 
	C459.795044,476.473938 459.795044,473.409790 459.795044,470.207336 
	C411.479736,470.207336 363.409271,470.207336 315.132080,470.207336 
	C315.132080,473.475098 315.132080,476.536957 315.132080,479.998169 
	C321.803406,479.998169 328.276245,480.253784 334.718567,479.920197 
	C340.229431,479.634888 343.645874,481.673615 344.992126,487.048950 
M181.089035,466.492279 
	C181.089035,443.746704 181.089035,421.001129 181.089035,398.297455 
	C132.367691,398.297455 84.309441,398.297455 36.283539,398.297455 
	C36.283539,425.647369 36.283539,452.698853 36.283539,479.702423 
	C84.671234,479.702423 132.732101,479.702423 181.089035,479.702423 
	C181.089035,475.435181 181.089035,471.462219 181.089035,466.492279 
M381.501160,182.877060 
	C395.667603,182.877029 409.834839,182.800888 423.999878,182.940964 
	C426.844635,182.969086 428.528778,182.138702 429.952545,179.618744 
	C433.963989,172.518784 438.263733,165.581940 442.434204,158.571518 
	C443.821045,156.240280 445.160614,153.880920 446.903656,150.876175 
	C425.305969,150.876175 404.815735,150.852158 384.325928,150.940704 
	C383.193268,150.945587 381.548889,151.566833 381.013092,152.437073 
	C374.942810,162.296021 369.042511,172.259598 362.688629,182.877029 
	C369.263000,182.877029 374.882660,182.877029 381.501160,182.877060 
M397.782776,124.270302 
	C395.432861,128.195465 393.082947,132.120636 390.235596,136.876648 
	C392.913513,136.876648 394.518646,136.876648 396.123749,136.876648 
	C411.271667,136.876648 426.477295,136.071594 441.547882,137.151184 
	C452.123627,137.908813 458.507568,134.835297 462.730408,125.066254 
	C465.705750,118.183159 470.296875,111.998520 474.541199,104.873146 
	C459.589325,104.873146 445.625702,104.849190 431.662262,104.882935 
	C424.345276,104.900620 415.701813,102.637413 410.086243,105.765106 
	C404.510986,108.870316 401.982971,117.446602 397.782776,124.270302 
M374.500275,196.873215 
	C371.167419,196.873215 367.769257,197.293961 364.514862,196.788620 
	C356.944183,195.613068 352.342834,198.363342 348.978943,205.390015 
	C345.219269,213.243484 340.187439,220.487961 335.184998,228.876587 
	C337.846619,228.876587 339.436890,228.876572 341.027161,228.876572 
	C355.525085,228.876572 370.102051,227.944153 384.496643,229.163803 
	C396.587646,230.188278 404.063843,226.559250 408.694794,215.282120 
	C411.285370,208.973740 415.567993,203.360214 419.421051,196.873184 
	C404.149628,196.873184 389.824921,196.873184 374.500275,196.873215 
M378.658081,265.154572 
	C382.929596,257.959534 387.201111,250.764481 391.884369,242.875854 
	C370.274963,242.875854 349.813416,242.810898 329.354462,243.009796 
	C327.857422,243.024353 325.870331,244.626190 324.977295,246.037994 
	C320.356018,253.343887 316.011871,260.825256 311.582184,268.252014 
	C310.378967,270.269379 309.214142,272.309631 307.718628,274.876770 
	C326.604614,274.876770 344.434296,274.373108 362.213257,275.103546 
	C370.287476,275.435272 375.562958,273.471466 378.658081,265.154572 
M359.925079,296.397827 
	C361.273590,294.071289 362.622101,291.744720 364.286560,288.873047 
	C345.323914,288.873047 327.341187,289.293823 309.394409,288.673798 
	C301.814514,288.411926 297.250366,290.397308 293.891479,297.399750 
	C290.129944,305.241669 285.108337,312.479156 280.652374,319.950562 
	C281.443878,320.461792 281.696198,320.767273 281.949310,320.767914 
	C302.250793,320.818268 322.552765,320.901245 342.852936,320.748871 
	C344.237610,320.738495 346.079163,319.246948 346.907745,317.937653 
	C351.262573,311.055969 355.359772,304.011261 359.925079,296.397827 
M219.953247,155.311493 
	C214.613831,164.245956 209.274429,173.180420 203.479294,182.877457 
	C219.714340,182.877457 235.056320,181.870758 250.196182,183.187683 
	C262.905304,184.293182 270.717255,180.502960 275.454254,168.620239 
	C277.852997,162.603058 282.032227,157.295670 285.732452,151.123642 
	C283.461548,151.006210 282.169708,150.882141 280.877838,150.881226 
	C262.892273,150.868439 244.905746,150.968506 226.922058,150.785202 
	C223.629730,150.751648 221.513885,151.627930 219.953247,155.311493 
M345.499390,150.872467 
	C332.357239,150.872589 319.214172,150.956467 306.073730,150.806870 
	C303.219635,150.774368 301.568787,151.662735 300.159302,154.149887 
	C296.145508,161.232574 291.853363,168.157150 287.703094,175.163101 
	C286.321289,177.495697 285.037567,179.886398 283.360168,182.871201 
	C304.267151,182.871201 324.204468,182.918518 344.140198,182.760117 
	C345.410278,182.750031 347.094818,181.418533 347.857208,180.232788 
	C351.180695,175.063904 354.244537,169.727554 357.382874,164.440277 
	C359.954895,160.107086 362.499054,155.757339 365.374939,150.872421 
	C358.464447,150.872421 352.481750,150.872421 345.499390,150.872467 
M125.532974,313.015961 
	C124.145111,315.407532 122.757248,317.799072 120.975609,320.869202 
	C141.886139,320.869202 161.952728,320.897705 182.018585,320.789917 
	C183.086945,320.784149 184.579117,319.892426 185.147934,318.966919 
	C191.123291,309.244354 196.950531,299.430786 202.955811,289.413696 
	C202.014496,289.145355 201.582840,288.915131 201.150894,288.914551 
	C181.685501,288.888641 162.219467,288.816101 142.755936,289.002899 
	C141.219376,289.017670 139.155975,290.503082 138.265427,291.897644 
	C133.973953,298.617889 130.000778,305.541443 125.532974,313.015961 
M279.965027,288.880676 
	C263.318573,288.877930 246.649597,289.383972 230.035461,288.649689 
	C222.170883,288.302155 217.593140,290.554138 214.150955,297.606842 
	C210.335876,305.423553 205.385345,312.686066 200.525055,320.870575 
	C221.589111,320.870575 241.685074,320.908936 261.779816,320.769379 
	C262.910950,320.761536 264.431702,319.536407 265.094543,318.460876 
	C270.502930,309.685394 275.785217,300.831055 280.981201,291.927948 
	C281.405823,291.200378 280.907227,289.933960 279.965027,288.880676 
M244.120255,220.628098 
	C248.737411,212.909576 253.354568,205.191040 258.130341,197.207382 
	C256.919769,197.009125 256.592773,196.909088 256.265656,196.908676 
	C242.459518,196.891251 228.653336,196.861023 214.847244,196.882645 
	C208.365234,196.892792 200.627731,194.839279 195.748047,197.668564 
	C190.679962,200.607132 188.341049,208.291977 184.874893,213.941864 
	C181.966125,218.683167 179.152710,223.482956 175.926270,228.876740 
	C194.770996,228.876740 212.564346,228.541397 230.333557,229.049805 
	C236.988586,229.240234 241.491119,227.685562 244.120255,220.628098 
M377.494965,104.873062 
	C365.848358,104.873070 354.131500,105.661301 342.576599,104.631966 
	C332.743530,103.756012 326.971832,106.931923 322.958527,115.839363 
	C319.737854,122.987572 315.068634,129.483154 310.681213,136.876740 
	C325.899963,136.876740 340.178253,136.918076 354.456085,136.858063 
	C360.910400,136.830948 368.564240,138.696060 373.480621,135.877304 
	C378.415375,133.048004 380.649384,125.476158 384.014374,119.950684 
	C386.902802,115.207680 389.716980,110.419426 393.028564,104.873039 
	C387.406036,104.873039 382.948761,104.873039 377.494965,104.873062 
M274.533997,197.311966 
	C268.324158,207.621872 262.114319,217.931793 255.525192,228.871384 
	C276.559021,228.871384 296.517365,228.928436 316.473541,228.746124 
	C317.840637,228.733643 319.658173,227.220230 320.473999,225.911118 
	C325.750549,217.444107 330.821228,208.848373 335.914795,200.268341 
	C336.454346,199.359482 336.704865,198.279053 337.200348,196.989761 
	C316.249176,196.989761 295.782837,196.989761 274.533997,197.311966 
M162.612366,251.106110 
	C158.041245,258.760010 153.470123,266.413910 148.416138,274.876312 
	C150.976852,274.876312 152.567139,274.876312 154.157440,274.876312 
	C169.148224,274.876343 184.186249,274.155640 199.112854,275.134369 
	C208.768417,275.767487 214.413391,272.892120 218.338455,264.070892 
	C221.526245,256.906647 226.275421,250.437103 230.802582,242.873489 
	C228.103378,242.873489 226.481308,242.873505 224.859238,242.873505 
	C208.702515,242.873505 192.533661,243.236847 176.394882,242.698608 
	C169.731155,242.476395 165.265198,244.081573 162.612366,251.106110 
M236.748016,260.248749 
	C233.981812,264.859070 231.215607,269.469421 227.976501,274.867950 
	C249.207581,274.867950 269.159454,274.896118 289.110596,274.790863 
	C290.191681,274.785187 291.712128,273.936005 292.276306,273.017670 
	C298.256012,263.283875 304.083160,253.456390 310.097168,243.412796 
	C309.158203,243.144699 308.731018,242.916489 308.303497,242.915939 
	C288.815948,242.890457 269.327881,242.830200 249.841675,242.989243 
	C248.409271,243.000946 246.495239,244.281113 245.653229,245.539185 
	C242.602921,250.096786 239.914490,254.896591 236.748016,260.248749 
M379.594086,306.840698 
	C387.690552,306.840698 395.787048,306.840698 404.197571,306.840698 
	C404.197571,287.982239 404.197571,269.686493 404.197571,251.390778 
	C403.915894,251.301254 403.634216,251.211716 403.352539,251.122192 
	C392.439606,269.362915 381.526703,287.603607 370.017761,306.840576 
	C373.757721,306.840576 376.195343,306.840576 379.594086,306.840698 
M363.500549,446.004517 
	C357.394165,446.004517 351.287781,446.004517 344.978516,446.004517 
	C344.978516,449.554840 344.978516,452.472992 344.978516,455.677673 
	C373.407928,455.677673 401.582001,455.677673 429.976074,455.677673 
	C429.976074,452.441040 429.976074,449.522583 429.976074,446.004517 
	C407.988983,446.004517 386.244720,446.004517 363.500549,446.004517 
M59.893723,375.691986 
	C59.893723,378.307068 59.893723,380.922150 59.893723,383.714111 
	C63.385960,383.714111 66.436569,383.714111 69.541870,383.714111 
	C69.541870,380.361969 69.541870,377.315552 69.541870,373.679352 
	C66.105789,374.066895 63.066811,374.409637 59.893723,375.691986 
M148.840942,383.980621 
	C151.577148,383.980621 154.313370,383.980621 156.948883,383.980621 
	C156.948883,380.282806 156.948883,377.348145 156.948883,374.317932 
	C153.631042,374.317932 150.585648,374.317932 146.875259,374.317932 
	C147.259003,377.728821 147.599777,380.757690 148.840942,383.980621 
M195.084839,460.691040 
	C195.084839,462.974854 195.084839,465.258667 195.084839,467.716003 
	C198.639374,467.716003 201.696518,467.716003 204.755402,467.716003 
	C204.755402,464.359467 204.755402,461.303986 204.755402,457.083313 
	C201.145493,458.088562 198.124512,458.929779 195.084839,460.691040 
z"/>
<path fill="#061820" opacity="1.000000" stroke="none" 
	d="
M46.796585,146.962555 
	C44.050076,145.428177 40.474640,144.328842 39.679165,142.193771 
	C38.863178,140.003632 40.130516,136.366821 41.642403,134.152786 
	C43.455166,131.498154 46.491428,129.679001 47.826004,128.517731 
	C44.380024,119.102409 41.578190,111.032730 38.386856,103.120140 
	C37.830776,101.741394 35.741203,100.417320 34.169182,100.136818 
	C31.423771,99.646927 28.517426,100.155273 25.701744,99.940659 
	C21.321142,99.606735 19.905725,96.790634 19.973656,92.720284 
	C20.039419,88.779793 21.876669,85.529808 25.726868,86.194397 
	C35.676968,87.911903 39.260429,83.278740 41.042446,74.267471 
	C42.067837,69.082268 45.582954,64.389412 48.730743,57.928608 
	C46.906906,56.443890 44.140560,54.563766 41.833485,52.229683 
	C38.042503,48.394325 37.974762,44.567207 41.213707,41.296204 
	C44.482021,37.995541 48.209831,38.118450 52.183720,41.714760 
	C53.417259,42.831093 54.614250,44.001808 55.713001,45.248920 
	C56.704407,46.374191 57.538666,47.637905 57.649410,47.785309 
	C66.912941,44.384975 75.117790,41.502243 83.185776,38.277130 
	C84.442169,37.774899 85.580727,35.812721 85.876884,34.344715 
	C86.329010,32.103607 85.971405,29.704380 86.007500,27.373058 
	C86.091202,21.966208 88.028030,19.969168 93.103676,20.003605 
	C98.090439,20.037443 99.918823,22.046644 99.998543,27.580345 
	C100.135017,37.053150 100.231827,36.784615 109.219887,40.024635 
	C115.255768,42.200451 120.969467,45.270016 128.020157,48.483330 
	C129.632782,46.598335 131.668304,43.956657 133.978745,41.582527 
	C137.105545,38.369549 142.381348,38.140736 145.118774,40.870735 
	C147.856644,43.601181 147.556091,48.798378 144.450439,52.041786 
	C142.263977,54.325256 140.048416,56.580875 137.855804,58.858505 
	C137.752594,58.965710 137.746216,59.166130 138.712479,58.964870 
	C141.650238,66.986534 144.478424,75.051788 147.635406,82.986229 
	C148.151627,84.283661 150.009628,85.602814 151.437332,85.860657 
	C154.018890,86.326889 156.745911,85.931770 159.408081,86.019958 
	C164.033585,86.173187 165.961731,88.228004 165.996429,92.885925 
	C166.031372,97.579445 164.097382,99.742966 159.636856,99.992638 
	C156.014069,100.195435 151.541138,99.183586 149.022202,100.954048 
	C146.786575,102.525391 146.987488,107.297440 145.637024,110.452988 
	C143.293152,115.929794 140.582047,121.249435 137.308105,128.144699 
	C139.252121,129.735199 142.097244,131.785278 144.605865,134.186844 
	C147.632141,137.083984 147.804611,142.241837 145.281235,144.967163 
	C142.644501,147.814880 137.337402,147.653641 134.112335,144.599960 
	C132.903320,143.455185 131.681366,142.310806 130.593292,141.055328 
	C129.502396,139.796570 128.571106,138.399490 128.423157,138.202011 
	C119.033730,141.644196 110.833298,144.546173 102.744225,147.731003 
	C101.561592,148.196609 100.357857,149.914062 100.131287,151.220108 
	C99.710396,153.646271 100.033150,156.196686 99.991936,158.694458 
	C99.903534,164.051498 97.924377,166.052551 92.828880,165.996201 
	C88.033134,165.943161 86.126579,163.947861 86.002129,158.851746 
	C85.759773,148.927216 85.662338,149.196335 76.715401,145.956924 
	C70.686600,143.774094 64.981003,140.698563 59.439682,138.163681 
	C55.423477,141.041611 51.305824,143.992233 46.796585,146.962555 
M52.147232,97.064713 
	C52.386566,98.374161 52.580708,99.693764 52.872086,100.991524 
	C56.614513,117.659988 66.810989,128.604660 83.225838,132.686813 
	C99.919930,136.838440 114.423409,131.791321 125.077087,118.259712 
	C135.721069,104.740410 137.032745,89.637245 129.318588,74.205154 
	C120.810562,57.184864 101.518845,48.647247 82.977837,53.221394 
	C63.896385,57.928875 51.605404,75.013657 52.147232,97.064713 
z"/>
<path fill="#E5E5EB" opacity="1.000000" stroke="none" 
	d="
M406.019409,398.528442 
	C399.188751,401.460114 398.512207,402.421539 398.494537,409.905273 
	C398.477692,417.043182 398.490906,424.181183 398.490906,431.662292 
	C391.152710,431.662292 384.099701,431.662292 376.745850,431.662292 
	C376.745850,394.904999 376.745850,358.050110 376.745850,321.001099 
	C383.925568,321.001099 390.874817,321.001099 398.492432,321.001099 
	C398.492432,325.527405 398.616638,329.957397 398.459564,334.377380 
	C398.281311,339.393982 400.147369,342.736267 405.649719,343.890045 
	C405.998871,346.703644 406.004883,349.400482 405.687592,352.698639 
	C400.276703,354.303925 398.269592,357.517792 398.436371,362.550629 
	C398.589722,367.179047 398.487061,371.816620 398.463898,376.449982 
	C398.438660,381.495941 400.512665,384.692230 405.898712,385.037445 
	C405.936401,389.379883 405.974091,393.722351 406.019409,398.528442 
z"/>
<path fill="#3AA8FB" opacity="1.000000" stroke="none" 
	d="
M291.509125,97.053574 
	C292.927551,102.803291 294.904938,104.697357 300.378479,104.847572 
	C304.363770,104.956947 308.354462,104.868958 313.293152,104.868958 
	C310.945496,108.887337 308.938782,112.377586 306.878693,115.836037 
	C303.306091,121.833748 299.794128,127.871620 296.037384,133.752518 
	C295.185822,135.085587 293.444733,136.723755 292.098907,136.736664 
	C272.161438,136.927917 252.221558,136.868591 231.619904,136.868591 
	C232.319412,135.236694 232.685242,134.033859 233.308716,132.984039 
	C238.231415,124.695007 243.298645,116.489967 248.101608,108.132774 
	C249.534729,105.639137 251.186905,104.607224 254.040894,104.820137 
	C257.184906,105.054680 260.368042,104.728867 263.519714,104.904770 
	C268.945282,105.207573 272.515137,103.143806 273.820190,97.281555 
	C279.678345,96.981377 285.361542,96.995300 291.509125,97.053574 
z"/>
<path fill="#EAEAF0" opacity="1.000000" stroke="none" 
	d="
M345.460541,487.026672 
	C343.645874,481.673615 340.229431,479.634888 334.718567,479.920197 
	C328.276245,480.253784 321.803406,479.998169 315.132080,479.998169 
	C315.132080,476.536957 315.132080,473.475098 315.132080,470.207336 
	C363.409271,470.207336 411.479736,470.207336 459.795044,470.207336 
	C459.795044,473.409790 459.795044,476.473938 459.795044,479.998108 
	C457.892029,479.998108 456.105988,479.998138 454.319946,479.998138 
	C427.830322,479.998169 401.340576,480.035583 374.851135,479.962433 
	C370.279053,479.949829 367.082886,481.422821 366.008179,486.550842 
	C359.288452,486.944183 352.608704,486.974304 345.460541,487.026672 
z"/>
<path fill="#0B1C25" opacity="1.000000" stroke="none" 
	d="
M406.282166,385.012756 
	C400.512665,384.692230 398.438660,381.495941 398.463898,376.449982 
	C398.487061,371.816620 398.589722,367.179047 398.436371,362.550629 
	C398.269592,357.517792 400.276703,354.303925 405.690186,353.148254 
	C411.060547,354.037079 413.107727,357.272522 413.006897,362.260559 
	C412.906738,367.213257 412.936493,372.170227 412.998749,377.124176 
	C413.054169,381.538208 411.376862,384.460083 406.282166,385.012756 
z"/>
<path fill="#FCD72E" opacity="1.000000" stroke="none" 
	d="
M181.089035,466.990753 
	C181.089035,471.462219 181.089035,475.435181 181.089035,479.702423 
	C132.732101,479.702423 84.671234,479.702423 36.283539,479.702423 
	C36.283539,452.698853 36.283539,425.647369 36.283539,398.297455 
	C84.309441,398.297455 132.367691,398.297455 181.089035,398.297455 
	C181.089035,421.001129 181.089035,443.746704 181.089035,466.990753 
M116.798851,461.236969 
	C118.998665,454.802887 121.298096,448.400665 123.368019,441.925079 
	C125.149910,436.350555 122.295311,432.336639 116.497147,432.023041 
	C114.442307,431.911896 112.376404,432.005280 109.900986,432.005280 
	C111.719933,426.776794 113.401054,422.283936 114.839272,417.714630 
	C116.269363,413.171143 114.742729,409.493774 111.122742,408.107666 
	C107.141617,406.583252 103.429558,408.358276 101.739746,412.979065 
	C98.892204,420.765656 96.141289,428.593048 93.595406,436.482574 
	C91.913139,441.695862 94.919159,445.665741 100.479408,445.975708 
	C102.550858,446.091156 104.634132,445.994354 107.130699,445.994354 
	C105.591881,450.522766 104.259460,454.427277 102.938225,458.335602 
	C100.741806,464.832764 101.811958,468.554779 106.296219,470.048340 
	C110.817253,471.554138 113.908134,469.299561 116.133560,462.875702 
	C116.242165,462.562195 116.371254,462.255737 116.798851,461.236969 
M56.348663,463.020844 
	C57.552391,460.624237 59.648338,458.280457 59.793972,455.821198 
	C60.246178,448.185028 60.043301,440.503693 59.925720,432.842468 
	C59.851658,428.016510 56.822826,424.900360 52.708366,425.029633 
	C48.766487,425.153503 46.040619,428.141602 45.984303,432.767120 
	C45.888988,440.595520 45.859035,448.427673 45.992153,456.254974 
	C46.092606,462.161652 49.480297,464.551758 56.348663,463.020844 
z"/>
<path fill="#3AA7FB" opacity="1.000000" stroke="none" 
	d="
M381.001709,182.877045 
	C374.882660,182.877029 369.263000,182.877029 362.688629,182.877029 
	C369.042511,172.259598 374.942810,162.296021 381.013092,152.437073 
	C381.548889,151.566833 383.193268,150.945587 384.325928,150.940704 
	C404.815735,150.852158 425.305969,150.876175 446.903656,150.876175 
	C445.160614,153.880920 443.821045,156.240280 442.434204,158.571518 
	C438.263733,165.581940 433.963989,172.518784 429.952545,179.618744 
	C428.528778,182.138702 426.844635,182.969086 423.999878,182.940964 
	C409.834839,182.800888 395.667603,182.877029 381.001709,182.877045 
z"/>
<path fill="#3AA8FB" opacity="1.000000" stroke="none" 
	d="
M397.950684,123.946922 
	C401.982971,117.446602 404.510986,108.870316 410.086243,105.765106 
	C415.701813,102.637413 424.345276,104.900620 431.662262,104.882935 
	C445.625702,104.849190 459.589325,104.873146 474.541199,104.873146 
	C470.296875,111.998520 465.705750,118.183159 462.730408,125.066254 
	C458.507568,134.835297 452.123627,137.908813 441.547882,137.151184 
	C426.477295,136.071594 411.271667,136.876648 396.123749,136.876648 
	C394.518646,136.876648 392.913513,136.876648 390.235596,136.876648 
	C393.082947,132.120636 395.432861,128.195465 397.950684,123.946922 
z"/>
<path fill="#3AA8FB" opacity="1.000000" stroke="none" 
	d="
M375.000244,196.873199 
	C389.824921,196.873184 404.149628,196.873184 419.421051,196.873184 
	C415.567993,203.360214 411.285370,208.973740 408.694794,215.282120 
	C404.063843,226.559250 396.587646,230.188278 384.496643,229.163803 
	C370.102051,227.944153 355.525085,228.876572 341.027161,228.876572 
	C339.436890,228.876572 337.846619,228.876587 335.184998,228.876587 
	C340.187439,220.487961 345.219269,213.243484 348.978943,205.390015 
	C352.342834,198.363342 356.944183,195.613068 364.514862,196.788620 
	C367.769257,197.293961 371.167419,196.873215 375.000244,196.873199 
z"/>
<path fill="#3AA7FB" opacity="1.000000" stroke="none" 
	d="
M378.450195,265.456238 
	C375.562958,273.471466 370.287476,275.435272 362.213257,275.103546 
	C344.434296,274.373108 326.604614,274.876770 307.718628,274.876770 
	C309.214142,272.309631 310.378967,270.269379 311.582184,268.252014 
	C316.011871,260.825256 320.356018,253.343887 324.977295,246.037994 
	C325.870331,244.626190 327.857422,243.024353 329.354462,243.009796 
	C349.813416,242.810898 370.274963,242.875854 391.884369,242.875854 
	C387.201111,250.764481 382.929596,257.959534 378.450195,265.456238 
z"/>
<path fill="#3AA7FB" opacity="1.000000" stroke="none" 
	d="
M359.735779,296.710510 
	C355.359772,304.011261 351.262573,311.055969 346.907745,317.937653 
	C346.079163,319.246948 344.237610,320.738495 342.852936,320.748871 
	C322.552765,320.901245 302.250793,320.818268 281.949310,320.767914 
	C281.696198,320.767273 281.443878,320.461792 280.652374,319.950562 
	C285.108337,312.479156 290.129944,305.241669 293.891479,297.399750 
	C297.250366,290.397308 301.814514,288.411926 309.394409,288.673798 
	C327.341187,289.293823 345.323914,288.873047 364.286560,288.873047 
	C362.622101,291.744720 361.273590,294.071289 359.735779,296.710510 
z"/>
<path fill="#3AA7FA" opacity="1.000000" stroke="none" 
	d="
M220.130951,154.974457 
	C221.513885,151.627930 223.629730,150.751648 226.922058,150.785202 
	C244.905746,150.968506 262.892273,150.868439 280.877838,150.881226 
	C282.169708,150.882141 283.461548,151.006210 285.732452,151.123642 
	C282.032227,157.295670 277.852997,162.603058 275.454254,168.620239 
	C270.717255,180.502960 262.905304,184.293182 250.196182,183.187683 
	C235.056320,181.870758 219.714340,182.877457 203.479294,182.877457 
	C209.274429,173.180420 214.613831,164.245956 220.130951,154.974457 
z"/>
<path fill="#3AA7FA" opacity="1.000000" stroke="none" 
	d="
M345.999207,150.872437 
	C352.481750,150.872421 358.464447,150.872421 365.374939,150.872421 
	C362.499054,155.757339 359.954895,160.107086 357.382874,164.440277 
	C354.244537,169.727554 351.180695,175.063904 347.857208,180.232788 
	C347.094818,181.418533 345.410278,182.750031 344.140198,182.760117 
	C324.204468,182.918518 304.267151,182.871201 283.360168,182.871201 
	C285.037567,179.886398 286.321289,177.495697 287.703094,175.163101 
	C291.853363,168.157150 296.145508,161.232574 300.159302,154.149887 
	C301.568787,151.662735 303.219635,150.774368 306.073730,150.806870 
	C319.214172,150.956467 332.357239,150.872589 345.999207,150.872437 
z"/>
<path fill="#3AA7FB" opacity="1.000000" stroke="none" 
	d="
M125.723808,312.704407 
	C130.000778,305.541443 133.973953,298.617889 138.265427,291.897644 
	C139.155975,290.503082 141.219376,289.017670 142.755936,289.002899 
	C162.219467,288.816101 181.685501,288.888641 201.150894,288.914551 
	C201.582840,288.915131 202.014496,289.145355 202.955811,289.413696 
	C196.950531,299.430786 191.123291,309.244354 185.147934,318.966919 
	C184.579117,319.892426 183.086945,320.784149 182.018585,320.789917 
	C161.952728,320.897705 141.886139,320.869202 120.975609,320.869202 
	C122.757248,317.799072 124.145111,315.407532 125.723808,312.704407 
z"/>
<path fill="#3AA7FA" opacity="1.000000" stroke="none" 
	d="
M280.401306,288.899292 
	C280.907227,289.933960 281.405823,291.200378 280.981201,291.927948 
	C275.785217,300.831055 270.502930,309.685394 265.094543,318.460876 
	C264.431702,319.536407 262.910950,320.761536 261.779816,320.769379 
	C241.685074,320.908936 221.589111,320.870575 200.525055,320.870575 
	C205.385345,312.686066 210.335876,305.423553 214.150955,297.606842 
	C217.593140,290.554138 222.170883,288.302155 230.035461,288.649689 
	C246.649597,289.383972 263.318573,288.877930 280.401306,288.899292 
z"/>
<path fill="#3AA7FB" opacity="1.000000" stroke="none" 
	d="
M243.951385,220.953110 
	C241.491119,227.685562 236.988586,229.240234 230.333557,229.049805 
	C212.564346,228.541397 194.770996,228.876740 175.926270,228.876740 
	C179.152710,223.482956 181.966125,218.683167 184.874893,213.941864 
	C188.341049,208.291977 190.679962,200.607132 195.748047,197.668564 
	C200.627731,194.839279 208.365234,196.892792 214.847244,196.882645 
	C228.653336,196.861023 242.459518,196.891251 256.265656,196.908676 
	C256.592773,196.909088 256.919769,197.009125 258.130341,197.207382 
	C253.354568,205.191040 248.737411,212.909576 243.951385,220.953110 
z"/>
<path fill="#3AA7FB" opacity="1.000000" stroke="none" 
	d="
M377.993225,104.873047 
	C382.948761,104.873039 387.406036,104.873039 393.028564,104.873039 
	C389.716980,110.419426 386.902802,115.207680 384.014374,119.950684 
	C380.649384,125.476158 378.415375,133.048004 373.480621,135.877304 
	C368.564240,138.696060 360.910400,136.830948 354.456085,136.858063 
	C340.178253,136.918076 325.899963,136.876740 310.681213,136.876740 
	C315.068634,129.483154 319.737854,122.987572 322.958527,115.839363 
	C326.971832,106.931923 332.743530,103.756012 342.576599,104.631966 
	C354.131500,105.661301 365.848358,104.873070 377.993225,104.873047 
z"/>
<path fill="#3AA8FB" opacity="1.000000" stroke="none" 
	d="
M274.925232,197.150864 
	C295.782837,196.989761 316.249176,196.989761 337.200348,196.989761 
	C336.704865,198.279053 336.454346,199.359482 335.914795,200.268341 
	C330.821228,208.848373 325.750549,217.444107 320.473999,225.911118 
	C319.658173,227.220230 317.840637,228.733643 316.473541,228.746124 
	C296.517365,228.928436 276.559021,228.871384 255.525192,228.871384 
	C262.114319,217.931793 268.324158,207.621872 274.925232,197.150864 
z"/>
<path fill="#3AA8FB" opacity="1.000000" stroke="none" 
	d="
M162.798706,250.789825 
	C165.265198,244.081573 169.731155,242.476395 176.394882,242.698608 
	C192.533661,243.236847 208.702515,242.873505 224.859238,242.873505 
	C226.481308,242.873505 228.103378,242.873489 230.802582,242.873489 
	C226.275421,250.437103 221.526245,256.906647 218.338455,264.070892 
	C214.413391,272.892120 208.768417,275.767487 199.112854,275.134369 
	C184.186249,274.155640 169.148224,274.876343 154.157440,274.876312 
	C152.567139,274.876312 150.976852,274.876312 148.416138,274.876312 
	C153.470123,266.413910 158.041245,258.760010 162.798706,250.789825 
z"/>
<path fill="#3AA8FB" opacity="1.000000" stroke="none" 
	d="
M236.918747,259.926880 
	C239.914490,254.896591 242.602921,250.096786 245.653229,245.539185 
	C246.495239,244.281113 248.409271,243.000946 249.841675,242.989243 
	C269.327881,242.830200 288.815948,242.890457 308.303497,242.915939 
	C308.731018,242.916489 309.158203,243.144699 310.097168,243.412796 
	C304.083160,253.456390 298.256012,263.283875 292.276306,273.017670 
	C291.712128,273.936005 290.191681,274.785187 289.110596,274.790863 
	C269.159454,274.896118 249.207581,274.867950 227.976501,274.867950 
	C231.215607,269.469421 233.981812,264.859070 236.918747,259.926880 
z"/>
<path fill="#0E89CB" opacity="1.000000" stroke="none" 
	d="
M379.113525,306.840637 
	C376.195343,306.840576 373.757721,306.840576 370.017761,306.840576 
	C381.526703,287.603607 392.439606,269.362915 403.352539,251.122192 
	C403.634216,251.211716 403.915894,251.301254 404.197571,251.390778 
	C404.197571,269.686493 404.197571,287.982239 404.197571,306.840698 
	C395.787048,306.840698 387.690552,306.840698 379.113525,306.840637 
z"/>
<path fill="#0E8BCE" opacity="1.000000" stroke="none" 
	d="
M364.000488,446.004517 
	C386.244720,446.004517 407.988983,446.004517 429.976074,446.004517 
	C429.976074,449.522583 429.976074,452.441040 429.976074,455.677673 
	C401.582001,455.677673 373.407928,455.677673 344.978516,455.677673 
	C344.978516,452.472992 344.978516,449.554840 344.978516,446.004517 
	C351.287781,446.004517 357.394165,446.004517 364.000488,446.004517 
z"/>
<path fill="#FA9501" opacity="1.000000" stroke="none" 
	d="
M59.960777,375.222168 
	C63.066811,374.409637 66.105789,374.066895 69.541870,373.679352 
	C69.541870,377.315552 69.541870,380.361969 69.541870,383.714111 
	C66.436569,383.714111 63.385960,383.714111 59.893723,383.714111 
	C59.893723,380.922150 59.893723,378.307068 59.960777,375.222168 
z"/>
<path fill="#F89401" opacity="1.000000" stroke="none" 
	d="
M148.390747,383.883606 
	C147.599777,380.757690 147.259003,377.728821 146.875259,374.317932 
	C150.585648,374.317932 153.631042,374.317932 156.948883,374.317932 
	C156.948883,377.348145 156.948883,380.282806 156.948883,383.980621 
	C154.313370,383.980621 151.577148,383.980621 148.390747,383.883606 
z"/>
<path fill="#FB9601" opacity="1.000000" stroke="none" 
	d="
M195.094177,460.231018 
	C198.124512,458.929779 201.145493,458.088562 204.755402,457.083313 
	C204.755402,461.303986 204.755402,464.359467 204.755402,467.716003 
	C201.696518,467.716003 198.639374,467.716003 195.084839,467.716003 
	C195.084839,465.258667 195.084839,462.974854 195.094177,460.231018 
z"/>
<path fill="#FCD72E" opacity="1.000000" stroke="none" 
	d="
M52.114517,96.616188 
	C51.605404,75.013657 63.896385,57.928875 82.977837,53.221394 
	C101.518845,48.647247 120.810562,57.184864 129.318588,74.205154 
	C137.032745,89.637245 135.721069,104.740410 125.077087,118.259712 
	C114.423409,131.791321 99.919930,136.838440 83.225838,132.686813 
	C66.810989,128.604660 56.614513,117.659988 52.872086,100.991524 
	C52.580708,99.693764 52.386566,98.374161 52.114517,96.616188 
z"/>
<path fill="#081920" opacity="1.000000" stroke="none" 
	d="
M116.644821,461.591492 
	C116.371254,462.255737 116.242165,462.562195 116.133560,462.875702 
	C113.908134,469.299561 110.817253,471.554138 106.296219,470.048340 
	C101.811958,468.554779 100.741806,464.832764 102.938225,458.335602 
	C104.259460,454.427277 105.591881,450.522766 107.130699,445.994354 
	C104.634132,445.994354 102.550858,446.091156 100.479408,445.975708 
	C94.919159,445.665741 91.913139,441.695862 93.595406,436.482574 
	C96.141289,428.593048 98.892204,420.765656 101.739746,412.979065 
	C103.429558,408.358276 107.141617,406.583252 111.122742,408.107666 
	C114.742729,409.493774 116.269363,413.171143 114.839272,417.714630 
	C113.401054,422.283936 111.719933,426.776794 109.900986,432.005280 
	C112.376404,432.005280 114.442307,431.911896 116.497147,432.023041 
	C122.295311,432.336639 125.149910,436.350555 123.368019,441.925079 
	C121.298096,448.400665 118.998665,454.802887 116.644821,461.591492 
z"/>
<path fill="#081920" opacity="1.000000" stroke="none" 
	d="
M55.991455,463.193268 
	C49.480297,464.551758 46.092606,462.161652 45.992153,456.254974 
	C45.859035,448.427673 45.888988,440.595520 45.984303,432.767120 
	C46.040619,428.141602 48.766487,425.153503 52.708366,425.029633 
	C56.822826,424.900360 59.851658,428.016510 59.925720,432.842468 
	C60.043301,440.503693 60.246178,448.185028 59.793972,455.821198 
	C59.648338,458.280457 57.552391,460.624237 55.991455,463.193268 
z"/>
</svg>